  0
SECTION
  2
HEADER
  9
$ACADVER
  1
AC1009
  9
$EXTMAX
 10
873.0
 20
792.615234375
 30
0.0
  9
$EXTMIN
 10
-873.0
 20
-792.615234375
 30
0.0
  9
$INSUNITS
 70
     4
  9
$LUNITS
 70
     2
  9
$LUPREC
 70
     4
  9
$MEASUREMENT
 70
     1
  0
ENDSEC
  0
SECTION
  2
TABLES
  0
TABLE
  2
LAYER
 70
     1
  0
LAYER
  2
0
 70
     0
 62
   -70
  6
Continuous
  0
LAYER
  2
CF_Lower
 70
     0
 62
    70
  6
Continuous
  0
LAYER
  2
SolidTubeBlocks
 70
     0
 62
     5
  6
Continuous
  0
LAYER
  2
MotorMount
 70
     0
 62
    70
  6
Continuous
  0
LAYER
  2
Props
 70
     0
 62
   173
  6
Continuous
  0
LAYER
  2
Motors
 70
     0
 62
     1
  6
Continuous
  0
LAYER
  2
CF_tubes
 70
     0
 62
     7
  6
Continuous
  0
LAYER
  2
BearingPillow
 70
     0
 62
     4
  6
Continuous
  0
LAYER
  2
TubeServo
 70
     0
 62
    30
  6
Continuous
  0
LAYER
  2
CF_Upper
 70
     0
 62
     6
  6
Continuous
  0
LAYER
  2
CF_DogBone
 70
     0
 62
    13
  6
Continuous
  0
LAYER
  2
CF_BattTray
 70
     0
 62
    70
  6
Continuous
  0
ENDTAB
  0
TABLE
  2
APPID
 70
     1
  0
APPID
  2
ACAD
 70
     0
  0
ENDTAB
  0
ENDSEC
  0
SECTION
  2
ENTITIES
  0
CIRCLE
  8
0
 10
0.0
 20
0.0
 30
0.0
 40
150.0
  0
POLYLINE
  8
0
 66
     1
 10
0.0
 20
0.0
 30
0.0
 70
     0
  0
VERTEX
  8
0
 10
-175.0
 20
0.0
 42
0.0
  0
VERTEX
  8
0
 10
175.0
 20
0.0
 42
0.0
  0
SEQEND
  0
POLYLINE
  8
0
 66
     1
 10
0.0
 20
0.0
 30
0.0
 70
     0
  0
VERTEX
  8
0
 10
-87.5
 20
151.554445662277
 42
0.0
  0
VERTEX
  8
0
 10
87.5
 20
-151.554445662277
 42
0.0
  0
SEQEND
  0
POLYLINE
  8
0
 66
     1
 10
0.0
 20
0.0
 30
0.0
 70
     0
  0
VERTEX
  8
0
 10
-87.5
 20
-151.554445662277
 42
0.0
  0
VERTEX
  8
0
 10
87.5
 20
151.554445662277
 42
0.0
  0
SEQEND
  0
POLYLINE
  8
0
 66
     1
 10
0.0
 20
0.0
 30
0.0
 70
     1
  0
VERTEX
  8
0
 10
-150.0
 20
0.0
 42
0.0
  0
VERTEX
  8
0
 10
-75.0
 20
-130.0
 42
0.0
  0
VERTEX
  8
0
 10
75.0
 20
-130.0
 42
0.0
  0
VERTEX
  8
0
 10
150.0
 20
0.0
 42
0.0
  0
VERTEX
  8
0
 10
75.0
 20
130.0
 42
0.0
  0
VERTEX
  8
0
 10
-75.0
 20
130.0
 42
0.0
  0
SEQEND
  0
POLYLINE
  8
0
 66
     1
 10
0.0
 20
0.0
 30
0.0
 70
     1
  0
VERTEX
  8
0
 10
-3.175
 20
-16.75
 42
0.0
  0
VERTEX
  8
0
 10
3.175
 20
-16.75
 42
0.0
  0
VERTEX
  8
0
 10
3.175
 20
16.75
 42
0.0
  0
VERTEX
  8
0
 10
-3.175
 20
16.75
 42
0.0
  0
SEQEND
  0
POLYLINE
  8
0
 66
     1
 10
0.0
 20
0.0
 30
0.0
 70
     0
  0
VERTEX
  8
0
 10
0.0
 20
-13.5
 42
0.0
  0
VERTEX
  8
0
 10
0.0
 20
13.5
 42
0.0
  0
SEQEND
  0
CIRCLE
  8
0
 10
0.0
 20
13.5
 30
0.0
 40
1.4142135623731
  0
CIRCLE
  8
0
 10
0.0
 20
-13.5
 30
0.0
 40
1.4142135623731
  0
POLYLINE
  8
0
 66
     1
 10
0.0
 20
0.0
 30
0.0
 70
     0
  0
VERTEX
  8
0
 10
1.0
 20
12.5
 42
0.0
  0
VERTEX
  8
0
 10
0.0
 20
13.5
 42
0.0
  0
VERTEX
  8
0
 10
-1.0
 20
12.5
 42
0.0
  0
SEQEND
  0
POLYLINE
  8
0
 66
     1
 10
0.0
 20
0.0
 30
0.0
 70
     0
  0
VERTEX
  8
0
 10
-1.0
 20
-12.5
 42
0.0
  0
VERTEX
  8
0
 10
0.0
 20
-13.5
 42
0.0
  0
VERTEX
  8
0
 10
1.0
 20
-12.5
 42
0.0
  0
SEQEND
  0
POLYLINE
  8
CF_Lower
 66
     1
 10
0.0
 20
0.0
 30
0.0
 70
     1
  0
VERTEX
  8
CF_Lower
 10
-89.0754474858899
 20
-121.698263655825
 42
0.0
  0
VERTEX
  8
CF_Lower
 10
-60.7785194144412
 20
-138.047595397763
 42
0.1317340003691
  0
VERTEX
  8
CF_Lower
 10
-59.2776869289455
 20
-138.45
 42
-0.4
  0
VERTEX
  8
CF_Lower
 10
59.4337181147956
 20
-138.45
 42
0.1316524975874
  0
VERTEX
  8
CF_Lower
 10
60.9337181147956
 20
-138.048076211353
 42
0.0
  0
VERTEX
  8
CF_Lower
 10
88.9862249945459
 20
-121.851953812886
 42
0.1317340003691
  0
VERTEX
  8
CF_Lower
 10
90.0847817526917
 20
-120.753044962001
 42
-0.4
  0
VERTEX
  8
CF_Lower
 10
149.540479739795
 20
-17.696501784355
 42
0.1316524975874
  0
VERTEX
  8
CF_Lower
 10
149.941922827614
 20
-16.1963730635037
 42
0.0
  0
VERTEX
  8
CF_Lower
 10
149.931536073985
 20
16.2162994905578
 42
0.1314894971806
  0
VERTEX
  8
CF_Lower
 10
149.530092986167
 20
17.714505490644
 42
-0.4
  0
VERTEX
  8
CF_Lower
 10
90.17317175854
 20
120.599835618531
 42
0.1316524975874
  0
VERTEX
  8
CF_Lower
 10
89.0754474858898
 20
121.698263655825
 42
0.0
  0
VERTEX
  8
CF_Lower
 10
60.7785194144412
 20
138.047595397763
 42
0.1317340003691
  0
VERTEX
  8
CF_Lower
 10
59.2776869289456
 20
138.45
 42
-0.4
  0
VERTEX
  8
CF_Lower
 10
-59.4337181147957
 20
138.45
 42
0.1316524975874
  0
VERTEX
  8
CF_Lower
 10
-60.9337181147957
 20
138.048076211353
 42
0.0
  0
VERTEX
  8
CF_Lower
 10
-88.9862249945459
 20
121.851953812886
 42
0.1317340003691
  0
VERTEX
  8
CF_Lower
 10
-90.0847817526917
 20
120.753044962001
 42
-0.4
  0
VERTEX
  8
CF_Lower
 10
-149.540479739795
 20
17.696501784355
 42
0.1316524975874
  0
VERTEX
  8
CF_Lower
 10
-149.941922827614
 20
16.1963730635038
 42
0.0
  0
VERTEX
  8
CF_Lower
 10
-149.931536073985
 20
-16.2162994905578
 42
0.1314894971806
  0
VERTEX
  8
CF_Lower
 10
-149.530092986167
 20
-17.714505490644
 42
-0.4
  0
VERTEX
  8
CF_Lower
 10
-90.17317175854
 20
-120.599835618531
 42
0.1316524975874
  0
SEQEND
  0
POLYLINE
  8
CF_Lower
 66
     1
 10
0.0
 20
0.0
 30
0.0
 70
     1
  0
VERTEX
  8
CF_Lower
 10
-59.0
 20
-45.0
 42
0.0
  0
VERTEX
  8
CF_Lower
 10
-49.0
 20
-45.0
 42
0.4142135623731
  0
VERTEX
  8
CF_Lower
 10
-44.0
 20
-40.0
 42
0.0
  0
VERTEX
  8
CF_Lower
 10
-44.0
 20
40.0
 42
0.4142135623731
  0
VERTEX
  8
CF_Lower
 10
-49.0
 20
45.0
 42
0.0
  0
VERTEX
  8
CF_Lower
 10
-59.0
 20
45.0
 42
0.4142135623731
  0
VERTEX
  8
CF_Lower
 10
-64.0
 20
40.0
 42
0.0
  0
VERTEX
  8
CF_Lower
 10
-64.0
 20
-40.0
 42
0.4142135623731
  0
SEQEND
  0
POLYLINE
  8
CF_Lower
 66
     1
 10
0.0
 20
0.0
 30
0.0
 70
     1
  0
VERTEX
  8
CF_Lower
 10
147.875
 20
13.5
 42
0.5773502691896
  0
VERTEX
  8
CF_Lower
 10
145.0625
 20
15.1237976320958
 42
0.5773502691896
  0
VERTEX
  8
CF_Lower
 10
145.0625
 20
11.8762023679042
 42
0.5773502691896
  0
SEQEND
  0
POLYLINE
  8
CF_Lower
 66
     1
 10
0.0
 20
0.0
 30
0.0
 70
     1
  0
VERTEX
  8
CF_Lower
 10
147.875
 20
-13.5
 42
0.5773502691896
  0
VERTEX
  8
CF_Lower
 10
145.0625
 20
-11.8762023679042
 42
0.5773502691896
  0
VERTEX
  8
CF_Lower
 10
145.0625
 20
-15.1237976320958
 42
0.5773502691896
  0
SEQEND
  0
POLYLINE
  8
CF_Lower
 66
     1
 10
0.0
 20
0.0
 30
0.0
 70
     1
  0
VERTEX
  8
CF_Lower
 10
63.1836570489101
 20
133.189708952528
 42
0.5773502691896
  0
VERTEX
  8
CF_Lower
 10
60.3711570489101
 20
134.813506584624
 42
0.5773502691896
  0
VERTEX
  8
CF_Lower
 10
60.3711570489101
 20
131.565911320432
 42
0.5773502691896
  0
SEQEND
  0
POLYLINE
  8
CF_Lower
 66
     1
 10
0.0
 20
0.0
 30
0.0
 70
     1
  0
VERTEX
  8
CF_Lower
 10
86.5663429510899
 20
119.689708952528
 42
0.5773502691896
  0
VERTEX
  8
CF_Lower
 10
83.7538429510899
 20
121.313506584624
 42
0.5773502691896
  0
VERTEX
  8
CF_Lower
 10
83.7538429510899
 20
118.065911320432
 42
0.5773502691896
  0
SEQEND
  0
POLYLINE
  8
CF_Lower
 66
     1
 10
0.0
 20
0.0
 30
0.0
 70
     1
  0
VERTEX
  8
CF_Lower
 10
86.5663429510899
 20
-119.689708952528
 42
0.5773502691896
  0
VERTEX
  8
CF_Lower
 10
83.7538429510899
 20
-118.065911320432
 42
0.5773502691896
  0
VERTEX
  8
CF_Lower
 10
83.7538429510899
 20
-121.313506584624
 42
0.5773502691896
  0
SEQEND
  0
POLYLINE
  8
CF_Lower
 66
     1
 10
0.0
 20
0.0
 30
0.0
 70
     1
  0
VERTEX
  8
CF_Lower
 10
63.1836570489101
 20
-133.189708952528
 42
0.5773502691896
  0
VERTEX
  8
CF_Lower
 10
60.3711570489101
 20
-131.565911320432
 42
0.5773502691896
  0
VERTEX
  8
CF_Lower
 10
60.3711570489101
 20
-134.813506584624
 42
0.5773502691896
  0
SEQEND
  0
POLYLINE
  8
CF_Lower
 66
     1
 10
0.0
 20
0.0
 30
0.0
 70
     1
  0
VERTEX
  8
CF_Lower
 10
-144.125
 20
13.5
 42
0.5773502691896
  0
VERTEX
  8
CF_Lower
 10
-146.9375
 20
15.1237976320958
 42
0.5773502691896
  0
VERTEX
  8
CF_Lower
 10
-146.9375
 20
11.8762023679042
 42
0.5773502691896
  0
SEQEND
  0
POLYLINE
  8
CF_Lower
 66
     1
 10
0.0
 20
0.0
 30
0.0
 70
     1
  0
VERTEX
  8
CF_Lower
 10
-144.125
 20
-13.5
 42
0.5773502691896
  0
VERTEX
  8
CF_Lower
 10
-146.9375
 20
-11.8762023679042
 42
0.5773502691896
  0
VERTEX
  8
CF_Lower
 10
-146.9375
 20
-15.1237976320958
 42
0.5773502691896
  0
SEQEND
  0
POLYLINE
  8
CF_Lower
 66
     1
 10
0.0
 20
0.0
 30
0.0
 70
     1
  0
VERTEX
  8
CF_Lower
 10
-59.4336570489101
 20
133.189708952528
 42
0.5773502691896
  0
VERTEX
  8
CF_Lower
 10
-62.2461570489101
 20
134.813506584624
 42
0.5773502691896
  0
VERTEX
  8
CF_Lower
 10
-62.2461570489101
 20
131.565911320432
 42
0.5773502691896
  0
SEQEND
  0
POLYLINE
  8
CF_Lower
 66
     1
 10
0.0
 20
0.0
 30
0.0
 70
     1
  0
VERTEX
  8
CF_Lower
 10
-82.81634295109
 20
119.689708952528
 42
0.5773502691896
  0
VERTEX
  8
CF_Lower
 10
-85.62884295109
 20
121.313506584624
 42
0.5773502691896
  0
VERTEX
  8
CF_Lower
 10
-85.62884295109
 20
118.065911320432
 42
0.5773502691896
  0
SEQEND
  0
POLYLINE
  8
CF_Lower
 66
     1
 10
0.0
 20
0.0
 30
0.0
 70
     1
  0
VERTEX
  8
CF_Lower
 10
-82.8163429510899
 20
-119.689708952528
 42
0.5773502691896
  0
VERTEX
  8
CF_Lower
 10
-85.6288429510899
 20
-118.065911320432
 42
0.5773502691896
  0
VERTEX
  8
CF_Lower
 10
-85.6288429510899
 20
-121.313506584624
 42
0.5773502691896
  0
SEQEND
  0
POLYLINE
  8
CF_Lower
 66
     1
 10
0.0
 20
0.0
 30
0.0
 70
     1
  0
VERTEX
  8
CF_Lower
 10
-59.4336570489101
 20
-133.189708952528
 42
0.5773502691896
  0
VERTEX
  8
CF_Lower
 10
-62.2461570489101
 20
-131.565911320432
 42
0.5773502691896
  0
VERTEX
  8
CF_Lower
 10
-62.2461570489101
 20
-134.813506584624
 42
0.5773502691896
  0
SEQEND
  0
POLYLINE
  8
CF_Lower
 66
     1
 10
0.0
 20
0.0
 30
0.0
 70
     1
  0
VERTEX
  8
CF_Lower
 10
15.1836570489101
 20
50.0512701892219
 42
0.5773502691896
  0
VERTEX
  8
CF_Lower
 10
12.3711570489101
 20
51.6750678213178
 42
0.5773502691896
  0
VERTEX
  8
CF_Lower
 10
12.3711570489101
 20
48.4274725571261
 42
0.5773502691896
  0
SEQEND
  0
POLYLINE
  8
CF_Lower
 66
     1
 10
0.0
 20
0.0
 30
0.0
 70
     1
  0
VERTEX
  8
CF_Lower
 10
38.5663429510899
 20
36.5512701892219
 42
0.5773502691896
  0
VERTEX
  8
CF_Lower
 10
35.7538429510899
 20
38.1750678213178
 42
0.5773502691896
  0
VERTEX
  8
CF_Lower
 10
35.7538429510899
 20
34.9274725571261
 42
0.5773502691896
  0
SEQEND
  0
POLYLINE
  8
CF_Lower
 66
     1
 10
0.0
 20
0.0
 30
0.0
 70
     1
  0
VERTEX
  8
CF_Lower
 10
38.5663429510899
 20
-36.5512701892219
 42
0.5773502691896
  0
VERTEX
  8
CF_Lower
 10
35.7538429510899
 20
-34.9274725571261
 42
0.5773502691896
  0
VERTEX
  8
CF_Lower
 10
35.7538429510899
 20
-38.1750678213178
 42
0.5773502691896
  0
SEQEND
  0
POLYLINE
  8
CF_Lower
 66
     1
 10
0.0
 20
0.0
 30
0.0
 70
     1
  0
VERTEX
  8
CF_Lower
 10
15.1836570489101
 20
-50.0512701892219
 42
0.5773502691896
  0
VERTEX
  8
CF_Lower
 10
12.3711570489101
 20
-48.4274725571261
 42
0.5773502691896
  0
VERTEX
  8
CF_Lower
 10
12.3711570489101
 20
-51.6750678213178
 42
0.5773502691896
  0
SEQEND
  0
POLYLINE
  8
CF_Lower
 66
     1
 10
0.0
 20
0.0
 30
0.0
 70
     1
  0
VERTEX
  8
CF_Lower
 10
-11.4336570489101
 20
50.0512701892219
 42
0.5773502691896
  0
VERTEX
  8
CF_Lower
 10
-14.2461570489101
 20
51.6750678213178
 42
0.5773502691896
  0
VERTEX
  8
CF_Lower
 10
-14.2461570489101
 20
48.4274725571261
 42
0.5773502691896
  0
SEQEND
  0
POLYLINE
  8
CF_Lower
 66
     1
 10
0.0
 20
0.0
 30
0.0
 70
     1
  0
VERTEX
  8
CF_Lower
 10
-34.8163429510899
 20
36.5512701892219
 42
0.5773502691896
  0
VERTEX
  8
CF_Lower
 10
-37.6288429510899
 20
38.1750678213177
 42
0.5773502691896
  0
VERTEX
  8
CF_Lower
 10
-37.6288429510899
 20
34.9274725571261
 42
0.5773502691896
  0
SEQEND
  0
POLYLINE
  8
CF_Lower
 66
     1
 10
0.0
 20
0.0
 30
0.0
 70
     1
  0
VERTEX
  8
CF_Lower
 10
-34.8163429510899
 20
-36.5512701892219
 42
0.5773502691896
  0
VERTEX
  8
CF_Lower
 10
-37.6288429510899
 20
-34.9274725571261
 42
0.5773502691896
  0
VERTEX
  8
CF_Lower
 10
-37.6288429510899
 20
-38.1750678213178
 42
0.5773502691896
  0
SEQEND
  0
POLYLINE
  8
CF_Lower
 66
     1
 10
0.0
 20
0.0
 30
0.0
 70
     1
  0
VERTEX
  8
CF_Lower
 10
-11.4336570489101
 20
-50.0512701892219
 42
0.5773502691896
  0
VERTEX
  8
CF_Lower
 10
-14.2461570489101
 20
-48.4274725571261
 42
0.5773502691896
  0
VERTEX
  8
CF_Lower
 10
-14.2461570489101
 20
-51.6750678213178
 42
0.5773502691896
  0
SEQEND
  0
CIRCLE
  8
SolidTubeBlocks
 10
300.0
 20
-519.615242270663
 30
0.0
 40
30.0
  0
POLYLINE
  8
SolidTubeBlocks
 66
     1
 10
0.0
 20
0.0
 30
0.0
 70
     1
  0
VERTEX
  8
SolidTubeBlocks
 10
-561.825
 20
16.7499999999999
 42
0.0
  0
VERTEX
  8
SolidTubeBlocks
 10
-565.0
 20
13.4999999999999
 42
0.0
  0
VERTEX
  8
SolidTubeBlocks
 10
-568.175
 20
16.7499999999999
 42
0.0
  0
VERTEX
  8
SolidTubeBlocks
 10
-568.175
 20
-16.7500000000001
 42
0.0
  0
VERTEX
  8
SolidTubeBlocks
 10
-565.0
 20
-13.5000000000001
 42
0.0
  0
VERTEX
  8
SolidTubeBlocks
 10
-561.825
 20
-16.7500000000001
 42
0.0
  0
SEQEND
  0
POLYLINE
  8
SolidTubeBlocks
 66
     1
 10
0.0
 20
0.0
 30
0.0
 70
     1
  0
VERTEX
  8
SolidTubeBlocks
 10
-526.825
 20
16.7499999999999
 42
0.0
  0
VERTEX
  8
SolidTubeBlocks
 10
-530.0
 20
13.4999999999999
 42
0.0
  0
VERTEX
  8
SolidTubeBlocks
 10
-533.175
 20
16.7499999999999
 42
0.0
  0
VERTEX
  8
SolidTubeBlocks
 10
-533.175
 20
-16.7500000000001
 42
0.0
  0
VERTEX
  8
SolidTubeBlocks
 10
-530.0
 20
-13.5000000000001
 42
0.0
  0
VERTEX
  8
SolidTubeBlocks
 10
-526.825
 20
-16.7500000000001
 42
0.0
  0
SEQEND
  0
POLYLINE
  8
SolidTubeBlocks
 66
     1
 10
0.0
 20
0.0
 30
0.0
 70
     1
  0
VERTEX
  8
SolidTubeBlocks
 10
-56.9065744866107
 20
132.065078295512
 42
0.0
  0
VERTEX
  8
SolidTubeBlocks
 10
-61.3086570489101
 20
133.189708952528
 42
0.0
  0
VERTEX
  8
SolidTubeBlocks
 10
-60.0815744866107
 20
137.564339609544
 42
0.0
  0
VERTEX
  8
SolidTubeBlocks
 10
-89.0934255133894
 20
120.814339609544
 42
0.0
  0
VERTEX
  8
SolidTubeBlocks
 10
-84.69134295109
 20
119.689708952528
 42
0.0
  0
VERTEX
  8
SolidTubeBlocks
 10
-85.9184255133894
 20
115.315078295512
 42
0.0
  0
SEQEND
  0
POLYLINE
  8
SolidTubeBlocks
 66
     1
 10
0.0
 20
0.0
 30
0.0
 70
     1
  0
VERTEX
  8
SolidTubeBlocks
 10
-8.9065744866107
 20
48.9266395322063
 42
0.0
  0
VERTEX
  8
SolidTubeBlocks
 10
-13.3086570489101
 20
50.0512701892219
 42
0.0
  0
VERTEX
  8
SolidTubeBlocks
 10
-12.0815744866107
 20
54.4259008462375
 42
0.0
  0
VERTEX
  8
SolidTubeBlocks
 10
-41.0934255133894
 20
37.6759008462375
 42
0.0
  0
VERTEX
  8
SolidTubeBlocks
 10
-36.6913429510899
 20
36.5512701892219
 42
0.0
  0
VERTEX
  8
SolidTubeBlocks
 10
-37.9184255133894
 20
32.1766395322063
 42
0.0
  0
SEQEND
  0
POLYLINE
  8
SolidTubeBlocks
 66
     1
 10
0.0
 20
0.0
 30
0.0
 70
     1
  0
VERTEX
  8
SolidTubeBlocks
 10
8.9065744866107
 20
48.9266395322063
 42
0.0
  0
VERTEX
  8
SolidTubeBlocks
 10
13.3086570489101
 20
50.0512701892219
 42
0.0
  0
VERTEX
  8
SolidTubeBlocks
 10
12.0815744866107
 20
54.4259008462375
 42
0.0
  0
VERTEX
  8
SolidTubeBlocks
 10
41.0934255133893
 20
37.6759008462375
 42
0.0
  0
VERTEX
  8
SolidTubeBlocks
 10
36.6913429510899
 20
36.5512701892219
 42
0.0
  0
VERTEX
  8
SolidTubeBlocks
 10
37.9184255133893
 20
32.1766395322063
 42
0.0
  0
SEQEND
  0
POLYLINE
  8
SolidTubeBlocks
 66
     1
 10
0.0
 20
0.0
 30
0.0
 70
     1
  0
VERTEX
  8
SolidTubeBlocks
 10
56.9065744866107
 20
132.065078295512
 42
0.0
  0
VERTEX
  8
SolidTubeBlocks
 10
61.3086570489101
 20
133.189708952528
 42
0.0
  0
VERTEX
  8
SolidTubeBlocks
 10
60.0815744866107
 20
137.564339609544
 42
0.0
  0
VERTEX
  8
SolidTubeBlocks
 10
89.0934255133893
 20
120.814339609544
 42
0.0
  0
VERTEX
  8
SolidTubeBlocks
 10
84.6913429510899
 20
119.689708952528
 42
0.0
  0
VERTEX
  8
SolidTubeBlocks
 10
85.9184255133894
 20
115.315078295512
 42
0.0
  0
SEQEND
  0
POLYLINE
  8
SolidTubeBlocks
 66
     1
 10
0.0
 20
0.0
 30
0.0
 70
     1
  0
VERTEX
  8
SolidTubeBlocks
 10
85.9184255133894
 20
-115.315078295512
 42
0.0
  0
VERTEX
  8
SolidTubeBlocks
 10
84.6913429510899
 20
-119.689708952528
 42
0.0
  0
VERTEX
  8
SolidTubeBlocks
 10
89.0934255133893
 20
-120.814339609544
 42
0.0
  0
VERTEX
  8
SolidTubeBlocks
 10
60.0815744866107
 20
-137.564339609544
 42
0.0
  0
VERTEX
  8
SolidTubeBlocks
 10
61.3086570489101
 20
-133.189708952528
 42
0.0
  0
VERTEX
  8
SolidTubeBlocks
 10
56.9065744866107
 20
-132.065078295512
 42
0.0
  0
SEQEND
  0
POLYLINE
  8
SolidTubeBlocks
 66
     1
 10
0.0
 20
0.0
 30
0.0
 70
     1
  0
VERTEX
  8
SolidTubeBlocks
 10
-85.9184255133893
 20
-115.315078295512
 42
0.0
  0
VERTEX
  8
SolidTubeBlocks
 10
-84.6913429510899
 20
-119.689708952528
 42
0.0
  0
VERTEX
  8
SolidTubeBlocks
 10
-89.0934255133893
 20
-120.814339609544
 42
0.0
  0
VERTEX
  8
SolidTubeBlocks
 10
-60.0815744866106
 20
-137.564339609544
 42
0.0
  0
VERTEX
  8
SolidTubeBlocks
 10
-61.3086570489101
 20
-133.189708952528
 42
0.0
  0
VERTEX
  8
SolidTubeBlocks
 10
-56.9065744866107
 20
-132.065078295512
 42
0.0
  0
SEQEND
  0
POLYLINE
  8
SolidTubeBlocks
 66
     1
 10
0.0
 20
0.0
 30
0.0
 70
     1
  0
VERTEX
  8
SolidTubeBlocks
 10
-37.9184255133893
 20
-32.1766395322063
 42
0.0
  0
VERTEX
  8
SolidTubeBlocks
 10
-36.6913429510899
 20
-36.5512701892219
 42
0.0
  0
VERTEX
  8
SolidTubeBlocks
 10
-41.0934255133893
 20
-37.6759008462375
 42
0.0
  0
VERTEX
  8
SolidTubeBlocks
 10
-12.0815744866106
 20
-54.4259008462375
 42
0.0
  0
VERTEX
  8
SolidTubeBlocks
 10
-13.3086570489101
 20
-50.0512701892219
 42
0.0
  0
VERTEX
  8
SolidTubeBlocks
 10
-8.9065744866106
 20
-48.9266395322063
 42
0.0
  0
SEQEND
  0
POLYLINE
  8
SolidTubeBlocks
 66
     1
 10
0.0
 20
0.0
 30
0.0
 70
     1
  0
VERTEX
  8
SolidTubeBlocks
 10
37.9184255133893
 20
-32.1766395322063
 42
0.0
  0
VERTEX
  8
SolidTubeBlocks
 10
36.6913429510899
 20
-36.5512701892219
 42
0.0
  0
VERTEX
  8
SolidTubeBlocks
 10
41.0934255133893
 20
-37.6759008462375
 42
0.0
  0
VERTEX
  8
SolidTubeBlocks
 10
12.0815744866107
 20
-54.4259008462375
 42
0.0
  0
VERTEX
  8
SolidTubeBlocks
 10
13.3086570489101
 20
-50.0512701892219
 42
0.0
  0
VERTEX
  8
SolidTubeBlocks
 10
8.9065744866107
 20
-48.9266395322063
 42
0.0
  0
SEQEND
  0
POLYLINE
  8
SolidTubeBlocks
 66
     1
 10
0.0
 20
0.0
 30
0.0
 70
     1
  0
VERTEX
  8
SolidTubeBlocks
 10
526.825
 20
16.75
 42
0.0
  0
VERTEX
  8
SolidTubeBlocks
 10
530.0
 20
13.5
 42
0.0
  0
VERTEX
  8
SolidTubeBlocks
 10
533.175
 20
16.75
 42
0.0
  0
VERTEX
  8
SolidTubeBlocks
 10
533.175
 20
-16.75
 42
0.0
  0
VERTEX
  8
SolidTubeBlocks
 10
530.0
 20
-13.5
 42
0.0
  0
VERTEX
  8
SolidTubeBlocks
 10
526.825
 20
-16.75
 42
0.0
  0
SEQEND
  0
POLYLINE
  8
SolidTubeBlocks
 66
     1
 10
0.0
 20
0.0
 30
0.0
 70
     1
  0
VERTEX
  8
SolidTubeBlocks
 10
561.825
 20
16.75
 42
0.0
  0
VERTEX
  8
SolidTubeBlocks
 10
565.0
 20
13.5
 42
0.0
  0
VERTEX
  8
SolidTubeBlocks
 10
568.175
 20
16.75
 42
0.0
  0
VERTEX
  8
SolidTubeBlocks
 10
568.175
 20
-16.75
 42
0.0
  0
VERTEX
  8
SolidTubeBlocks
 10
565.0
 20
-13.5
 42
0.0
  0
VERTEX
  8
SolidTubeBlocks
 10
561.825
 20
-16.75
 42
0.0
  0
SEQEND
  0
POLYLINE
  8
SolidTubeBlocks
 66
     1
 10
0.0
 20
0.0
 30
0.0
 70
     1
  0
VERTEX
  8
SolidTubeBlocks
 10
266.406574486611
 20
-494.929722481192
 42
0.0
  0
VERTEX
  8
SolidTubeBlocks
 10
270.80865704891
 20
-496.054353138208
 42
0.0
  0
VERTEX
  8
SolidTubeBlocks
 10
269.581574486611
 20
-500.428983795224
 42
0.0
  0
VERTEX
  8
SolidTubeBlocks
 10
298.593425513389
 20
-483.678983795224
 42
0.0
  0
VERTEX
  8
SolidTubeBlocks
 10
294.19134295109
 20
-482.554353138208
 42
0.0
  0
VERTEX
  8
SolidTubeBlocks
 10
295.418425513389
 20
-478.179722481192
 42
0.0
  0
SEQEND
  0
POLYLINE
  8
SolidTubeBlocks
 66
     1
 10
0.0
 20
0.0
 30
0.0
 70
     1
  0
VERTEX
  8
SolidTubeBlocks
 10
301.406574486611
 20
-555.551500746103
 42
0.0
  0
VERTEX
  8
SolidTubeBlocks
 10
305.80865704891
 20
-556.676131403119
 42
0.0
  0
VERTEX
  8
SolidTubeBlocks
 10
304.581574486611
 20
-561.050762060134
 42
0.0
  0
VERTEX
  8
SolidTubeBlocks
 10
333.593425513389
 20
-544.300762060134
 42
0.0
  0
VERTEX
  8
SolidTubeBlocks
 10
329.19134295109
 20
-543.176131403119
 42
0.0
  0
VERTEX
  8
SolidTubeBlocks
 10
330.418425513389
 20
-538.801500746103
 42
0.0
  0
SEQEND
  0
POLYLINE
  8
SolidTubeBlocks
 66
     1
 10
0.0
 20
0.0
 30
0.0
 70
     1
  0
VERTEX
  8
SolidTubeBlocks
 10
-295.418425513389
 20
-478.179722481192
 42
0.0
  0
VERTEX
  8
SolidTubeBlocks
 10
-294.19134295109
 20
-482.554353138208
 42
0.0
  0
VERTEX
  8
SolidTubeBlocks
 10
-298.593425513389
 20
-483.678983795224
 42
0.0
  0
VERTEX
  8
SolidTubeBlocks
 10
-269.581574486611
 20
-500.428983795224
 42
0.0
  0
VERTEX
  8
SolidTubeBlocks
 10
-270.80865704891
 20
-496.054353138208
 42
0.0
  0
VERTEX
  8
SolidTubeBlocks
 10
-266.406574486611
 20
-494.929722481192
 42
0.0
  0
SEQEND
  0
POLYLINE
  8
SolidTubeBlocks
 66
     1
 10
0.0
 20
0.0
 30
0.0
 70
     1
  0
VERTEX
  8
SolidTubeBlocks
 10
-330.418425513389
 20
-538.801500746103
 42
0.0
  0
VERTEX
  8
SolidTubeBlocks
 10
-329.19134295109
 20
-543.176131403119
 42
0.0
  0
VERTEX
  8
SolidTubeBlocks
 10
-333.593425513389
 20
-544.300762060134
 42
0.0
  0
VERTEX
  8
SolidTubeBlocks
 10
-304.581574486611
 20
-561.050762060134
 42
0.0
  0
VERTEX
  8
SolidTubeBlocks
 10
-305.80865704891
 20
-556.676131403119
 42
0.0
  0
VERTEX
  8
SolidTubeBlocks
 10
-301.406574486611
 20
-555.551500746103
 42
0.0
  0
SEQEND
  0
POLYLINE
  8
SolidTubeBlocks
 66
     1
 10
0.0
 20
0.0
 30
0.0
 70
     1
  0
VERTEX
  8
SolidTubeBlocks
 10
-330.418425513389
 20
538.801500746103
 42
0.0
  0
VERTEX
  8
SolidTubeBlocks
 10
-329.19134295109
 20
543.176131403119
 42
0.0
  0
VERTEX
  8
SolidTubeBlocks
 10
-333.593425513389
 20
544.300762060134
 42
0.0
  0
VERTEX
  8
SolidTubeBlocks
 10
-304.581574486611
 20
561.050762060134
 42
0.0
  0
VERTEX
  8
SolidTubeBlocks
 10
-305.80865704891
 20
556.676131403119
 42
0.0
  0
VERTEX
  8
SolidTubeBlocks
 10
-301.406574486611
 20
555.551500746103
 42
0.0
  0
SEQEND
  0
POLYLINE
  8
SolidTubeBlocks
 66
     1
 10
0.0
 20
0.0
 30
0.0
 70
     1
  0
VERTEX
  8
SolidTubeBlocks
 10
-295.418425513389
 20
478.179722481192
 42
0.0
  0
VERTEX
  8
SolidTubeBlocks
 10
-294.19134295109
 20
482.554353138208
 42
0.0
  0
VERTEX
  8
SolidTubeBlocks
 10
-298.593425513389
 20
483.678983795224
 42
0.0
  0
VERTEX
  8
SolidTubeBlocks
 10
-269.581574486611
 20
500.428983795224
 42
0.0
  0
VERTEX
  8
SolidTubeBlocks
 10
-270.80865704891
 20
496.054353138208
 42
0.0
  0
VERTEX
  8
SolidTubeBlocks
 10
-266.406574486611
 20
494.929722481192
 42
0.0
  0
SEQEND
  0
POLYLINE
  8
SolidTubeBlocks
 66
     1
 10
0.0
 20
0.0
 30
0.0
 70
     1
  0
VERTEX
  8
SolidTubeBlocks
 10
266.406574486611
 20
494.929722481192
 42
0.0
  0
VERTEX
  8
SolidTubeBlocks
 10
270.80865704891
 20
496.054353138208
 42
0.0
  0
VERTEX
  8
SolidTubeBlocks
 10
269.581574486611
 20
500.428983795224
 42
0.0
  0
VERTEX
  8
SolidTubeBlocks
 10
298.593425513389
 20
483.678983795224
 42
0.0
  0
VERTEX
  8
SolidTubeBlocks
 10
294.19134295109
 20
482.554353138208
 42
0.0
  0
VERTEX
  8
SolidTubeBlocks
 10
295.418425513389
 20
478.179722481192
 42
0.0
  0
SEQEND
  0
POLYLINE
  8
SolidTubeBlocks
 66
     1
 10
0.0
 20
0.0
 30
0.0
 70
     1
  0
VERTEX
  8
SolidTubeBlocks
 10
301.406574486611
 20
555.551500746103
 42
0.0
  0
VERTEX
  8
SolidTubeBlocks
 10
305.80865704891
 20
556.676131403119
 42
0.0
  0
VERTEX
  8
SolidTubeBlocks
 10
304.581574486611
 20
561.050762060134
 42
0.0
  0
VERTEX
  8
SolidTubeBlocks
 10
333.593425513389
 20
544.300762060134
 42
0.0
  0
VERTEX
  8
SolidTubeBlocks
 10
329.19134295109
 20
543.176131403119
 42
0.0
  0
VERTEX
  8
SolidTubeBlocks
 10
330.418425513389
 20
538.801500746103
 42
0.0
  0
SEQEND
  0
POLYLINE
  8
MotorMount
 66
     1
 10
0.0
 20
0.0
 30
0.0
 70
     1
  0
VERTEX
  8
MotorMount
 10
298.820508075689
 20
477.572302330639
 42
0.0
  0
VERTEX
  8
MotorMount
 10
335.820508075689
 20
541.658182210688
 42
0.4142135623731
  0
VERTEX
  8
MotorMount
 10
333.990381056767
 20
548.48830922961
 42
0.0
  0
VERTEX
  8
MotorMount
 10
308.009618943233
 20
563.48830922961
 42
0.4142135623731
  0
VERTEX
  8
MotorMount
 10
301.179491924311
 20
561.658182210688
 42
0.0
  0
VERTEX
  8
MotorMount
 10
264.179491924311
 20
497.572302330639
 42
0.4142135623731
  0
VERTEX
  8
MotorMount
 10
266.009618943233
 20
490.742175311717
 42
0.0
  0
VERTEX
  8
MotorMount
 10
291.990381056767
 20
475.742175311717
 42
0.4142135623731
  0
SEQEND
  0
POLYLINE
  8
MotorMount
 66
     1
 10
0.0
 20
0.0
 30
0.0
 70
     1
  0
VERTEX
  8
MotorMount
 10
271.74615704891
 20
497.678150770304
 42
0.5773502691896
  0
VERTEX
  8
MotorMount
 10
268.93365704891
 20
496.054353138208
 42
0.5773502691896
  0
VERTEX
  8
MotorMount
 10
271.74615704891
 20
494.430555506112
 42
0.5773502691896
  0
SEQEND
  0
POLYLINE
  8
MotorMount
 66
     1
 10
0.0
 20
0.0
 30
0.0
 70
     1
  0
VERTEX
  8
MotorMount
 10
295.12884295109
 20
484.178150770304
 42
0.5773502691896
  0
VERTEX
  8
MotorMount
 10
292.31634295109
 20
482.554353138208
 42
0.5773502691896
  0
VERTEX
  8
MotorMount
 10
295.12884295109
 20
480.930555506112
 42
0.5773502691896
  0
SEQEND
  0
POLYLINE
  8
MotorMount
 66
     1
 10
0.0
 20
0.0
 30
0.0
 70
     1
  0
VERTEX
  8
MotorMount
 10
307.042598674784
 20
501.832053470397
 42
0.0
  0
VERTEX
  8
MotorMount
 10
304.972046313964
 20
509.559460080709
 42
0.4142135623731
  0
VERTEX
  8
MotorMount
 10
302.277607596902
 20
511.11509499932
 42
0.4142135623731
  0
VERTEX
  8
MotorMount
 10
300.721972678292
 20
508.420656282258
 42
0.0
  0
VERTEX
  8
MotorMount
 10
302.792525039112
 20
500.693249671945
 42
0.4142135623731
  0
VERTEX
  8
MotorMount
 10
305.486963756174
 20
499.137614753335
 42
0.4142135623731
  0
SEQEND
  0
POLYLINE
  8
MotorMount
 66
     1
 10
0.0
 20
0.0
 30
0.0
 70
     1
  0
VERTEX
  8
MotorMount
 10
303.5
 20
525.677420097154
 42
0.5773502691896
  0
VERTEX
  8
MotorMount
 10
293.0
 20
519.615242270663
 42
0.5773502691896
  0
VERTEX
  8
MotorMount
 10
303.5
 20
513.553064444172
 42
0.5773502691896
  0
SEQEND
  0
POLYLINE
  8
MotorMount
 66
     1
 10
0.0
 20
0.0
 30
0.0
 70
     1
  0
VERTEX
  8
MotorMount
 10
291.499852728656
 20
517.337634673761
 42
0.4142135623731
  0
VERTEX
  8
MotorMount
 10
288.805414011595
 20
518.893269592372
 42
0.0
  0
VERTEX
  8
MotorMount
 10
281.078007401282
 20
516.822717231551
 42
0.4142135623731
  0
VERTEX
  8
MotorMount
 10
279.522372482672
 20
514.12827851449
 42
0.4142135623731
  0
VERTEX
  8
MotorMount
 10
282.216811199733
 20
512.57264359588
 42
0.0
  0
VERTEX
  8
MotorMount
 10
289.944217810046
 20
514.6431959567
 42
0.4142135623731
  0
SEQEND
  0
POLYLINE
  8
MotorMount
 66
     1
 10
0.0
 20
0.0
 30
0.0
 70
     1
  0
VERTEX
  8
MotorMount
 10
299.278027321708
 20
530.809828259069
 42
0.0
  0
VERTEX
  8
MotorMount
 10
297.207474960888
 20
538.537234869381
 42
0.4142135623731
  0
VERTEX
  8
MotorMount
 10
294.513036243827
 20
540.092869787992
 42
0.4142135623731
  0
VERTEX
  8
MotorMount
 10
292.957401325216
 20
537.39843107093
 42
0.0
  0
VERTEX
  8
MotorMount
 10
295.027953686036
 20
529.671024460617
 42
0.4142135623731
  0
VERTEX
  8
MotorMount
 10
297.722392403098
 20
528.115389542007
 42
0.4142135623731
  0
SEQEND
  0
POLYLINE
  8
MotorMount
 66
     1
 10
0.0
 20
0.0
 30
0.0
 70
     1
  0
VERTEX
  8
MotorMount
 10
320.477627517328
 20
525.102206026837
 42
0.4142135623731
  0
VERTEX
  8
MotorMount
 10
317.783188800267
 20
526.657840945447
 42
0.0
  0
VERTEX
  8
MotorMount
 10
310.055782189954
 20
524.587288584627
 42
0.4142135623731
  0
VERTEX
  8
MotorMount
 10
308.500147271344
 20
521.892849867565
 42
0.4142135623731
  0
VERTEX
  8
MotorMount
 10
311.194585988405
 20
520.337214948955
 42
0.0
  0
VERTEX
  8
MotorMount
 10
318.921992598718
 20
522.407767309775
 42
0.4142135623731
  0
SEQEND
  0
POLYLINE
  8
MotorMount
 66
     1
 10
0.0
 20
0.0
 30
0.0
 70
     1
  0
VERTEX
  8
MotorMount
 10
304.87115704891
 20
555.052333771023
 42
-0.5773502691896
  0
VERTEX
  8
MotorMount
 10
304.87115704891
 20
558.299929035215
 42
-0.5773502691896
  0
VERTEX
  8
MotorMount
 10
307.68365704891
 20
556.676131403119
 42
-0.5773502691896
  0
SEQEND
  0
POLYLINE
  8
MotorMount
 66
     1
 10
0.0
 20
0.0
 30
0.0
 70
     1
  0
VERTEX
  8
MotorMount
 10
328.25384295109
 20
541.552333771023
 42
-0.5773502691896
  0
VERTEX
  8
MotorMount
 10
328.25384295109
 20
544.799929035215
 42
-0.5773502691896
  0
VERTEX
  8
MotorMount
 10
331.06634295109
 20
543.176131403119
 42
-0.5773502691896
  0
SEQEND
  0
POLYLINE
  8
MotorMount
 66
     1
 10
0.0
 20
0.0
 30
0.0
 70
     1
  0
VERTEX
  8
MotorMount
 10
-264.179491924311
 20
497.572302330639
 42
0.0
  0
VERTEX
  8
MotorMount
 10
-301.179491924311
 20
561.658182210688
 42
0.4142135623731
  0
VERTEX
  8
MotorMount
 10
-308.009618943233
 20
563.48830922961
 42
0.0
  0
VERTEX
  8
MotorMount
 10
-333.990381056767
 20
548.48830922961
 42
0.4142135623731
  0
VERTEX
  8
MotorMount
 10
-335.820508075689
 20
541.658182210688
 42
0.0
  0
VERTEX
  8
MotorMount
 10
-298.820508075689
 20
477.572302330639
 42
0.4142135623731
  0
VERTEX
  8
MotorMount
 10
-291.990381056767
 20
475.742175311717
 42
0.0
  0
VERTEX
  8
MotorMount
 10
-266.009618943233
 20
490.742175311717
 42
0.4142135623731
  0
SEQEND
  0
POLYLINE
  8
MotorMount
 66
     1
 10
0.0
 20
0.0
 30
0.0
 70
     1
  0
VERTEX
  8
MotorMount
 10
-295.12884295109
 20
484.178150770304
 42
0.5773502691896
  0
VERTEX
  8
MotorMount
 10
-295.12884295109
 20
480.930555506112
 42
0.5773502691896
  0
VERTEX
  8
MotorMount
 10
-292.31634295109
 20
482.554353138208
 42
0.5773502691896
  0
SEQEND
  0
POLYLINE
  8
MotorMount
 66
     1
 10
0.0
 20
0.0
 30
0.0
 70
     1
  0
VERTEX
  8
MotorMount
 10
-271.74615704891
 20
497.678150770304
 42
0.5773502691896
  0
VERTEX
  8
MotorMount
 10
-271.74615704891
 20
494.430555506112
 42
0.5773502691896
  0
VERTEX
  8
MotorMount
 10
-268.93365704891
 20
496.054353138208
 42
0.5773502691896
  0
SEQEND
  0
POLYLINE
  8
MotorMount
 66
     1
 10
0.0
 20
0.0
 30
0.0
 70
     1
  0
VERTEX
  8
MotorMount
 10
-281.078007401282
 20
516.822717231551
 42
0.0
  0
VERTEX
  8
MotorMount
 10
-288.805414011595
 20
518.893269592372
 42
0.4142135623731
  0
VERTEX
  8
MotorMount
 10
-291.499852728656
 20
517.337634673761
 42
0.4142135623731
  0
VERTEX
  8
MotorMount
 10
-289.944217810046
 20
514.6431959567
 42
0.0
  0
VERTEX
  8
MotorMount
 10
-282.216811199733
 20
512.57264359588
 42
0.4142135623731
  0
VERTEX
  8
MotorMount
 10
-279.522372482672
 20
514.12827851449
 42
0.4142135623731
  0
SEQEND
  0
POLYLINE
  8
MotorMount
 66
     1
 10
0.0
 20
0.0
 30
0.0
 70
     1
  0
VERTEX
  8
MotorMount
 10
-303.5
 20
525.677420097154
 42
0.5773502691896
  0
VERTEX
  8
MotorMount
 10
-303.5
 20
513.553064444172
 42
0.5773502691896
  0
VERTEX
  8
MotorMount
 10
-293.0
 20
519.615242270663
 42
0.5773502691896
  0
SEQEND
  0
POLYLINE
  8
MotorMount
 66
     1
 10
0.0
 20
0.0
 30
0.0
 70
     1
  0
VERTEX
  8
MotorMount
 10
-302.277607596902
 20
511.11509499932
 42
0.4142135623731
  0
VERTEX
  8
MotorMount
 10
-304.972046313964
 20
509.559460080709
 42
0.0
  0
VERTEX
  8
MotorMount
 10
-307.042598674784
 20
501.832053470397
 42
0.4142135623731
  0
VERTEX
  8
MotorMount
 10
-305.486963756173
 20
499.137614753335
 42
0.4142135623731
  0
VERTEX
  8
MotorMount
 10
-302.792525039112
 20
500.693249671946
 42
0.0
  0
VERTEX
  8
MotorMount
 10
-300.721972678292
 20
508.420656282258
 42
0.4142135623731
  0
SEQEND
  0
POLYLINE
  8
MotorMount
 66
     1
 10
0.0
 20
0.0
 30
0.0
 70
     1
  0
VERTEX
  8
MotorMount
 10
-310.055782189954
 20
524.587288584627
 42
0.0
  0
VERTEX
  8
MotorMount
 10
-317.783188800267
 20
526.657840945447
 42
0.4142135623731
  0
VERTEX
  8
MotorMount
 10
-320.477627517328
 20
525.102206026837
 42
0.4142135623731
  0
VERTEX
  8
MotorMount
 10
-318.921992598718
 20
522.407767309775
 42
0.0
  0
VERTEX
  8
MotorMount
 10
-311.194585988405
 20
520.337214948955
 42
0.4142135623731
  0
VERTEX
  8
MotorMount
 10
-308.500147271344
 20
521.892849867565
 42
0.4142135623731
  0
SEQEND
  0
POLYLINE
  8
MotorMount
 66
     1
 10
0.0
 20
0.0
 30
0.0
 70
     1
  0
VERTEX
  8
MotorMount
 10
-294.513036243827
 20
540.092869787992
 42
0.4142135623731
  0
VERTEX
  8
MotorMount
 10
-297.207474960888
 20
538.537234869381
 42
0.0
  0
VERTEX
  8
MotorMount
 10
-299.278027321708
 20
530.809828259069
 42
0.4142135623731
  0
VERTEX
  8
MotorMount
 10
-297.722392403098
 20
528.115389542007
 42
0.4142135623731
  0
VERTEX
  8
MotorMount
 10
-295.027953686036
 20
529.671024460617
 42
0.0
  0
VERTEX
  8
MotorMount
 10
-292.957401325216
 20
537.39843107093
 42
0.4142135623731
  0
SEQEND
  0
POLYLINE
  8
MotorMount
 66
     1
 10
0.0
 20
0.0
 30
0.0
 70
     1
  0
VERTEX
  8
MotorMount
 10
-328.25384295109
 20
541.552333771023
 42
-0.5773502691896
  0
VERTEX
  8
MotorMount
 10
-331.06634295109
 20
543.176131403119
 42
-0.5773502691896
  0
VERTEX
  8
MotorMount
 10
-328.25384295109
 20
544.799929035215
 42
-0.5773502691896
  0
SEQEND
  0
POLYLINE
  8
MotorMount
 66
     1
 10
0.0
 20
0.0
 30
0.0
 70
     1
  0
VERTEX
  8
MotorMount
 10
-304.87115704891
 20
555.052333771023
 42
-0.5773502691896
  0
VERTEX
  8
MotorMount
 10
-307.68365704891
 20
556.676131403119
 42
-0.5773502691896
  0
VERTEX
  8
MotorMount
 10
-304.87115704891
 20
558.299929035215
 42
-0.5773502691896
  0
SEQEND
  0
POLYLINE
  8
MotorMount
 66
     1
 10
0.0
 20
0.0
 30
0.0
 70
     1
  0
VERTEX
  8
MotorMount
 10
-264.179491924311
 20
-497.572302330639
 42
0.0
  0
VERTEX
  8
MotorMount
 10
-301.179491924311
 20
-561.658182210688
 42
-0.4142135623731
  0
VERTEX
  8
MotorMount
 10
-308.009618943233
 20
-563.48830922961
 42
0.0
  0
VERTEX
  8
MotorMount
 10
-333.990381056767
 20
-548.48830922961
 42
-0.4142135623731
  0
VERTEX
  8
MotorMount
 10
-335.820508075689
 20
-541.658182210688
 42
0.0
  0
VERTEX
  8
MotorMount
 10
-298.820508075689
 20
-477.572302330639
 42
-0.4142135623731
  0
VERTEX
  8
MotorMount
 10
-291.990381056767
 20
-475.742175311717
 42
0.0
  0
VERTEX
  8
MotorMount
 10
-266.009618943233
 20
-490.742175311717
 42
-0.4142135623731
  0
SEQEND
  0
POLYLINE
  8
MotorMount
 66
     1
 10
0.0
 20
0.0
 30
0.0
 70
     1
  0
VERTEX
  8
MotorMount
 10
-295.12884295109
 20
-484.178150770304
 42
-0.5773502691896
  0
VERTEX
  8
MotorMount
 10
-295.12884295109
 20
-480.930555506112
 42
-0.5773502691896
  0
VERTEX
  8
MotorMount
 10
-292.31634295109
 20
-482.554353138208
 42
-0.5773502691896
  0
SEQEND
  0
POLYLINE
  8
MotorMount
 66
     1
 10
0.0
 20
0.0
 30
0.0
 70
     1
  0
VERTEX
  8
MotorMount
 10
-271.74615704891
 20
-497.678150770304
 42
-0.5773502691896
  0
VERTEX
  8
MotorMount
 10
-271.74615704891
 20
-494.430555506112
 42
-0.5773502691896
  0
VERTEX
  8
MotorMount
 10
-268.93365704891
 20
-496.054353138208
 42
-0.5773502691896
  0
SEQEND
  0
POLYLINE
  8
MotorMount
 66
     1
 10
0.0
 20
0.0
 30
0.0
 70
     1
  0
VERTEX
  8
MotorMount
 10
-281.078007401282
 20
-516.822717231551
 42
0.0
  0
VERTEX
  8
MotorMount
 10
-288.805414011595
 20
-518.893269592372
 42
-0.4142135623731
  0
VERTEX
  8
MotorMount
 10
-291.499852728656
 20
-517.337634673761
 42
-0.4142135623731
  0
VERTEX
  8
MotorMount
 10
-289.944217810046
 20
-514.6431959567
 42
0.0
  0
VERTEX
  8
MotorMount
 10
-282.216811199733
 20
-512.57264359588
 42
-0.4142135623731
  0
VERTEX
  8
MotorMount
 10
-279.522372482672
 20
-514.12827851449
 42
-0.4142135623731
  0
SEQEND
  0
POLYLINE
  8
MotorMount
 66
     1
 10
0.0
 20
0.0
 30
0.0
 70
     1
  0
VERTEX
  8
MotorMount
 10
-303.5
 20
-525.677420097154
 42
-0.5773502691896
  0
VERTEX
  8
MotorMount
 10
-303.5
 20
-513.553064444172
 42
-0.5773502691896
  0
VERTEX
  8
MotorMount
 10
-293.0
 20
-519.615242270663
 42
-0.5773502691896
  0
SEQEND
  0
POLYLINE
  8
MotorMount
 66
     1
 10
0.0
 20
0.0
 30
0.0
 70
     1
  0
VERTEX
  8
MotorMount
 10
-302.277607596902
 20
-511.11509499932
 42
-0.4142135623731
  0
VERTEX
  8
MotorMount
 10
-304.972046313964
 20
-509.559460080709
 42
0.0
  0
VERTEX
  8
MotorMount
 10
-307.042598674784
 20
-501.832053470397
 42
-0.4142135623731
  0
VERTEX
  8
MotorMount
 10
-305.486963756173
 20
-499.137614753335
 42
-0.4142135623731
  0
VERTEX
  8
MotorMount
 10
-302.792525039112
 20
-500.693249671946
 42
0.0
  0
VERTEX
  8
MotorMount
 10
-300.721972678292
 20
-508.420656282258
 42
-0.4142135623731
  0
SEQEND
  0
POLYLINE
  8
MotorMount
 66
     1
 10
0.0
 20
0.0
 30
0.0
 70
     1
  0
VERTEX
  8
MotorMount
 10
-310.055782189954
 20
-524.587288584627
 42
0.0
  0
VERTEX
  8
MotorMount
 10
-317.783188800267
 20
-526.657840945447
 42
-0.4142135623731
  0
VERTEX
  8
MotorMount
 10
-320.477627517328
 20
-525.102206026837
 42
-0.4142135623731
  0
VERTEX
  8
MotorMount
 10
-318.921992598718
 20
-522.407767309775
 42
0.0
  0
VERTEX
  8
MotorMount
 10
-311.194585988405
 20
-520.337214948955
 42
-0.4142135623731
  0
VERTEX
  8
MotorMount
 10
-308.500147271344
 20
-521.892849867565
 42
-0.4142135623731
  0
SEQEND
  0
POLYLINE
  8
MotorMount
 66
     1
 10
0.0
 20
0.0
 30
0.0
 70
     1
  0
VERTEX
  8
MotorMount
 10
-294.513036243827
 20
-540.092869787992
 42
-0.4142135623731
  0
VERTEX
  8
MotorMount
 10
-297.207474960888
 20
-538.537234869381
 42
0.0
  0
VERTEX
  8
MotorMount
 10
-299.278027321708
 20
-530.809828259069
 42
-0.4142135623731
  0
VERTEX
  8
MotorMount
 10
-297.722392403098
 20
-528.115389542007
 42
-0.4142135623731
  0
VERTEX
  8
MotorMount
 10
-295.027953686036
 20
-529.671024460617
 42
0.0
  0
VERTEX
  8
MotorMount
 10
-292.957401325216
 20
-537.39843107093
 42
-0.4142135623731
  0
SEQEND
  0
POLYLINE
  8
MotorMount
 66
     1
 10
0.0
 20
0.0
 30
0.0
 70
     1
  0
VERTEX
  8
MotorMount
 10
-328.25384295109
 20
-541.552333771023
 42
0.5773502691896
  0
VERTEX
  8
MotorMount
 10
-331.06634295109
 20
-543.176131403119
 42
0.5773502691896
  0
VERTEX
  8
MotorMount
 10
-328.25384295109
 20
-544.799929035215
 42
0.5773502691896
  0
SEQEND
  0
POLYLINE
  8
MotorMount
 66
     1
 10
0.0
 20
0.0
 30
0.0
 70
     1
  0
VERTEX
  8
MotorMount
 10
-304.87115704891
 20
-555.052333771023
 42
0.5773502691896
  0
VERTEX
  8
MotorMount
 10
-307.68365704891
 20
-556.676131403119
 42
0.5773502691896
  0
VERTEX
  8
MotorMount
 10
-304.87115704891
 20
-558.299929035215
 42
0.5773502691896
  0
SEQEND
  0
POLYLINE
  8
MotorMount
 66
     1
 10
0.0
 20
0.0
 30
0.0
 70
     1
  0
VERTEX
  8
MotorMount
 10
298.820508075689
 20
-477.572302330639
 42
0.0
  0
VERTEX
  8
MotorMount
 10
335.820508075689
 20
-541.658182210688
 42
-0.4142135623731
  0
VERTEX
  8
MotorMount
 10
333.990381056767
 20
-548.48830922961
 42
0.0
  0
VERTEX
  8
MotorMount
 10
308.009618943233
 20
-563.48830922961
 42
-0.4142135623731
  0
VERTEX
  8
MotorMount
 10
301.179491924311
 20
-561.658182210688
 42
0.0
  0
VERTEX
  8
MotorMount
 10
264.179491924311
 20
-497.572302330639
 42
-0.4142135623731
  0
VERTEX
  8
MotorMount
 10
266.009618943233
 20
-490.742175311717
 42
0.0
  0
VERTEX
  8
MotorMount
 10
291.990381056767
 20
-475.742175311717
 42
-0.4142135623731
  0
SEQEND
  0
POLYLINE
  8
MotorMount
 66
     1
 10
0.0
 20
0.0
 30
0.0
 70
     1
  0
VERTEX
  8
MotorMount
 10
271.74615704891
 20
-497.678150770304
 42
-0.5773502691896
  0
VERTEX
  8
MotorMount
 10
268.93365704891
 20
-496.054353138208
 42
-0.5773502691896
  0
VERTEX
  8
MotorMount
 10
271.74615704891
 20
-494.430555506112
 42
-0.5773502691896
  0
SEQEND
  0
POLYLINE
  8
MotorMount
 66
     1
 10
0.0
 20
0.0
 30
0.0
 70
     1
  0
VERTEX
  8
MotorMount
 10
295.12884295109
 20
-484.178150770304
 42
-0.5773502691896
  0
VERTEX
  8
MotorMount
 10
292.31634295109
 20
-482.554353138208
 42
-0.5773502691896
  0
VERTEX
  8
MotorMount
 10
295.12884295109
 20
-480.930555506112
 42
-0.5773502691896
  0
SEQEND
  0
POLYLINE
  8
MotorMount
 66
     1
 10
0.0
 20
0.0
 30
0.0
 70
     1
  0
VERTEX
  8
MotorMount
 10
307.042598674784
 20
-501.832053470397
 42
0.0
  0
VERTEX
  8
MotorMount
 10
304.972046313964
 20
-509.559460080709
 42
-0.4142135623731
  0
VERTEX
  8
MotorMount
 10
302.277607596902
 20
-511.11509499932
 42
-0.4142135623731
  0
VERTEX
  8
MotorMount
 10
300.721972678292
 20
-508.420656282258
 42
0.0
  0
VERTEX
  8
MotorMount
 10
302.792525039112
 20
-500.693249671945
 42
-0.4142135623731
  0
VERTEX
  8
MotorMount
 10
305.486963756174
 20
-499.137614753335
 42
-0.4142135623731
  0
SEQEND
  0
POLYLINE
  8
MotorMount
 66
     1
 10
0.0
 20
0.0
 30
0.0
 70
     1
  0
VERTEX
  8
MotorMount
 10
303.5
 20
-525.677420097154
 42
-0.5773502691896
  0
VERTEX
  8
MotorMount
 10
293.0
 20
-519.615242270663
 42
-0.5773502691896
  0
VERTEX
  8
MotorMount
 10
303.5
 20
-513.553064444172
 42
-0.5773502691896
  0
SEQEND
  0
POLYLINE
  8
MotorMount
 66
     1
 10
0.0
 20
0.0
 30
0.0
 70
     1
  0
VERTEX
  8
MotorMount
 10
291.499852728656
 20
-517.337634673761
 42
-0.4142135623731
  0
VERTEX
  8
MotorMount
 10
288.805414011595
 20
-518.893269592372
 42
0.0
  0
VERTEX
  8
MotorMount
 10
281.078007401282
 20
-516.822717231551
 42
-0.4142135623731
  0
VERTEX
  8
MotorMount
 10
279.522372482672
 20
-514.12827851449
 42
-0.4142135623731
  0
VERTEX
  8
MotorMount
 10
282.216811199733
 20
-512.57264359588
 42
0.0
  0
VERTEX
  8
MotorMount
 10
289.944217810046
 20
-514.6431959567
 42
-0.4142135623731
  0
SEQEND
  0
POLYLINE
  8
MotorMount
 66
     1
 10
0.0
 20
0.0
 30
0.0
 70
     1
  0
VERTEX
  8
MotorMount
 10
299.278027321708
 20
-530.809828259069
 42
0.0
  0
VERTEX
  8
MotorMount
 10
297.207474960888
 20
-538.537234869381
 42
-0.4142135623731
  0
VERTEX
  8
MotorMount
 10
294.513036243827
 20
-540.092869787992
 42
-0.4142135623731
  0
VERTEX
  8
MotorMount
 10
292.957401325216
 20
-537.39843107093
 42
0.0
  0
VERTEX
  8
MotorMount
 10
295.027953686036
 20
-529.671024460617
 42
-0.4142135623731
  0
VERTEX
  8
MotorMount
 10
297.722392403098
 20
-528.115389542007
 42
-0.4142135623731
  0
SEQEND
  0
POLYLINE
  8
MotorMount
 66
     1
 10
0.0
 20
0.0
 30
0.0
 70
     1
  0
VERTEX
  8
MotorMount
 10
320.477627517328
 20
-525.102206026837
 42
-0.4142135623731
  0
VERTEX
  8
MotorMount
 10
317.783188800267
 20
-526.657840945447
 42
0.0
  0
VERTEX
  8
MotorMount
 10
310.055782189954
 20
-524.587288584627
 42
-0.4142135623731
  0
VERTEX
  8
MotorMount
 10
308.500147271344
 20
-521.892849867565
 42
-0.4142135623731
  0
VERTEX
  8
MotorMount
 10
311.194585988405
 20
-520.337214948955
 42
0.0
  0
VERTEX
  8
MotorMount
 10
318.921992598718
 20
-522.407767309775
 42
-0.4142135623731
  0
SEQEND
  0
POLYLINE
  8
MotorMount
 66
     1
 10
0.0
 20
0.0
 30
0.0
 70
     1
  0
VERTEX
  8
MotorMount
 10
304.87115704891
 20
-555.052333771023
 42
0.5773502691896
  0
VERTEX
  8
MotorMount
 10
304.87115704891
 20
-558.299929035215
 42
0.5773502691896
  0
VERTEX
  8
MotorMount
 10
307.68365704891
 20
-556.676131403119
 42
0.5773502691896
  0
SEQEND
  0
POLYLINE
  8
MotorMount
 66
     1
 10
0.0
 20
0.0
 30
0.0
 70
     1
  0
VERTEX
  8
MotorMount
 10
328.25384295109
 20
-541.552333771023
 42
0.5773502691896
  0
VERTEX
  8
MotorMount
 10
328.25384295109
 20
-544.799929035215
 42
0.5773502691896
  0
VERTEX
  8
MotorMount
 10
331.06634295109
 20
-543.176131403119
 42
0.5773502691896
  0
SEQEND
  0
POLYLINE
  8
MotorMount
 66
     1
 10
0.0
 20
0.0
 30
0.0
 70
     1
  0
VERTEX
  8
MotorMount
 10
526.484301991873
 20
19.730591362005
 42
0.0
  0
VERTEX
  8
MotorMount
 10
598.659301991873
 20
27.980591362005
 42
-0.0168536607099
  0
VERTEX
  8
MotorMount
 10
598.860840101615
 20
27.9967706823649
 42
-0.4297704877059
  0
VERTEX
  8
MotorMount
 10
628.000069242202
 20
0.0000000000001
 42
-0.4297704877059
  0
VERTEX
  8
MotorMount
 10
598.860840101615
 20
-27.9967706823649
 42
-0.0168536607099
  0
VERTEX
  8
MotorMount
 10
598.659301991873
 20
-27.980591362005
 42
0.0
  0
VERTEX
  8
MotorMount
 10
526.484301991873
 20
-19.730591362005
 42
-0.3812584340113
  0
VERTEX
  8
MotorMount
 10
523.825
 20
-16.75
 42
0.0
  0
VERTEX
  8
MotorMount
 10
523.825
 20
16.75
 42
-0.3812584340113
  0
SEQEND
  0
POLYLINE
  8
MotorMount
 66
     1
 10
0.0
 20
0.0
 30
0.0
 70
     1
  0
VERTEX
  8
MotorMount
 10
531.875
 20
13.5
 42
0.5773502691896
  0
VERTEX
  8
MotorMount
 10
529.0625
 20
15.1237976320958
 42
0.5773502691896
  0
VERTEX
  8
MotorMount
 10
529.0625
 20
11.8762023679042
 42
0.5773502691896
  0
SEQEND
  0
POLYLINE
  8
MotorMount
 66
     1
 10
0.0
 20
0.0
 30
0.0
 70
     1
  0
VERTEX
  8
MotorMount
 10
566.875
 20
13.5
 42
0.5773502691896
  0
VERTEX
  8
MotorMount
 10
564.0625
 20
15.1237976320958
 42
0.5773502691896
  0
VERTEX
  8
MotorMount
 10
564.0625
 20
11.8762023679042
 42
0.5773502691896
  0
SEQEND
  0
POLYLINE
  8
MotorMount
 66
     1
 10
0.0
 20
0.0
 30
0.0
 70
     1
  0
VERTEX
  8
MotorMount
 10
566.875
 20
-13.5
 42
0.5773502691896
  0
VERTEX
  8
MotorMount
 10
564.0625
 20
-11.8762023679042
 42
0.5773502691896
  0
VERTEX
  8
MotorMount
 10
564.0625
 20
-15.1237976320958
 42
0.5773502691896
  0
SEQEND
  0
POLYLINE
  8
MotorMount
 66
     1
 10
0.0
 20
0.0
 30
0.0
 70
     1
  0
VERTEX
  8
MotorMount
 10
531.875
 20
-13.5
 42
0.5773502691896
  0
VERTEX
  8
MotorMount
 10
529.0625
 20
-11.8762023679042
 42
0.5773502691896
  0
VERTEX
  8
MotorMount
 10
529.0625
 20
-15.1237976320958
 42
0.5773502691896
  0
SEQEND
  0
POLYLINE
  8
MotorMount
 66
     1
 10
0.0
 20
0.0
 30
0.0
 70
     1
  0
VERTEX
  8
MotorMount
 10
588.120606076066
 20
-14.9906637611548
 42
0.0
  0
VERTEX
  8
MotorMount
 10
593.777460325558
 20
-9.3338095116624
 42
0.4142135623731
  0
VERTEX
  8
MotorMount
 10
593.777460325558
 20
-6.2225396744416
 42
0.4142135623731
  0
VERTEX
  8
MotorMount
 10
590.666190488338
 20
-6.2225396744416
 42
0.0
  0
VERTEX
  8
MotorMount
 10
585.009336238845
 20
-11.879393923934
 42
0.4142135623731
  0
VERTEX
  8
MotorMount
 10
585.009336238845
 20
-14.9906637611548
 42
0.4142135623731
  0
SEQEND
  0
POLYLINE
  8
MotorMount
 66
     1
 10
0.0
 20
0.0
 30
0.0
 70
     1
  0
VERTEX
  8
MotorMount
 10
607.0
 20
0.0
 42
0.5773502691896
  0
VERTEX
  8
MotorMount
 10
596.5
 20
6.0621778264911
 42
0.5773502691896
  0
VERTEX
  8
MotorMount
 10
596.5
 20
-6.0621778264911
 42
0.5773502691896
  0
SEQEND
  0
POLYLINE
  8
MotorMount
 66
     1
 10
0.0
 20
0.0
 30
0.0
 70
     1
  0
VERTEX
  8
MotorMount
 10
593.777460325558
 20
6.2225396744416
 42
0.4142135623731
  0
VERTEX
  8
MotorMount
 10
593.777460325558
 20
9.3338095116624
 42
0.0
  0
VERTEX
  8
MotorMount
 10
588.120606076066
 20
14.9906637611548
 42
0.4142135623731
  0
VERTEX
  8
MotorMount
 10
585.009336238845
 20
14.9906637611548
 42
0.4142135623731
  0
VERTEX
  8
MotorMount
 10
585.009336238845
 20
11.879393923934
 42
0.0
  0
VERTEX
  8
MotorMount
 10
590.666190488338
 20
6.2225396744416
 42
0.4142135623731
  0
SEQEND
  0
POLYLINE
  8
MotorMount
 66
     1
 10
0.0
 20
0.0
 30
0.0
 70
     1
  0
VERTEX
  8
MotorMount
 10
609.333809511662
 20
6.2225396744416
 42
0.0
  0
VERTEX
  8
MotorMount
 10
614.990663761155
 20
11.879393923934
 42
0.4142135623731
  0
VERTEX
  8
MotorMount
 10
614.990663761155
 20
14.9906637611548
 42
0.4142135623731
  0
VERTEX
  8
MotorMount
 10
611.879393923934
 20
14.9906637611548
 42
0.0
  0
VERTEX
  8
MotorMount
 10
606.222539674442
 20
9.3338095116624
 42
0.4142135623731
  0
VERTEX
  8
MotorMount
 10
606.222539674442
 20
6.2225396744416
 42
0.4142135623731
  0
SEQEND
  0
POLYLINE
  8
MotorMount
 66
     1
 10
0.0
 20
0.0
 30
0.0
 70
     1
  0
VERTEX
  8
MotorMount
 10
614.990663761155
 20
-14.9906637611548
 42
0.4142135623731
  0
VERTEX
  8
MotorMount
 10
614.990663761155
 20
-11.879393923934
 42
0.0
  0
VERTEX
  8
MotorMount
 10
609.333809511662
 20
-6.2225396744416
 42
0.4142135623731
  0
VERTEX
  8
MotorMount
 10
606.222539674442
 20
-6.2225396744416
 42
0.4142135623731
  0
VERTEX
  8
MotorMount
 10
606.222539674442
 20
-9.3338095116624
 42
0.0
  0
VERTEX
  8
MotorMount
 10
611.879393923934
 20
-14.9906637611548
 42
0.4142135623731
  0
SEQEND
  0
POLYLINE
  8
MotorMount
 66
     1
 10
0.0
 20
0.0
 30
0.0
 70
     1
  0
VERTEX
  8
MotorMount
 10
-526.484301991873
 20
19.730591362005
 42
0.0
  0
VERTEX
  8
MotorMount
 10
-598.659301991873
 20
27.980591362005
 42
0.0168536607099
  0
VERTEX
  8
MotorMount
 10
-598.860840101615
 20
27.9967706823649
 42
0.4297704877059
  0
VERTEX
  8
MotorMount
 10
-628.000069242202
 20
0.0000000000002
 42
0.4297704877059
  0
VERTEX
  8
MotorMount
 10
-598.860840101615
 20
-27.9967706823648
 42
0.0168536607099
  0
VERTEX
  8
MotorMount
 10
-598.659301991873
 20
-27.9805913620049
 42
0.0
  0
VERTEX
  8
MotorMount
 10
-526.484301991873
 20
-19.7305913620049
 42
0.3812584340113
  0
VERTEX
  8
MotorMount
 10
-523.825
 20
-16.7499999999999
 42
0.0
  0
VERTEX
  8
MotorMount
 10
-523.825
 20
16.7500000000001
 42
0.3812584340113
  0
SEQEND
  0
POLYLINE
  8
MotorMount
 66
     1
 10
0.0
 20
0.0
 30
0.0
 70
     1
  0
VERTEX
  8
MotorMount
 10
-531.875
 20
13.5000000000001
 42
-0.5773502691896
  0
VERTEX
  8
MotorMount
 10
-529.0625
 20
15.1237976320959
 42
-0.5773502691896
  0
VERTEX
  8
MotorMount
 10
-529.0625
 20
11.8762023679042
 42
-0.5773502691896
  0
SEQEND
  0
POLYLINE
  8
MotorMount
 66
     1
 10
0.0
 20
0.0
 30
0.0
 70
     1
  0
VERTEX
  8
MotorMount
 10
-566.875
 20
13.5000000000001
 42
-0.5773502691896
  0
VERTEX
  8
MotorMount
 10
-564.0625
 20
15.1237976320959
 42
-0.5773502691896
  0
VERTEX
  8
MotorMount
 10
-564.0625
 20
11.8762023679042
 42
-0.5773502691896
  0
SEQEND
  0
POLYLINE
  8
MotorMount
 66
     1
 10
0.0
 20
0.0
 30
0.0
 70
     1
  0
VERTEX
  8
MotorMount
 10
-566.875
 20
-13.4999999999999
 42
-0.5773502691896
  0
VERTEX
  8
MotorMount
 10
-564.0625
 20
-11.8762023679041
 42
-0.5773502691896
  0
VERTEX
  8
MotorMount
 10
-564.0625
 20
-15.1237976320957
 42
-0.5773502691896
  0
SEQEND
  0
POLYLINE
  8
MotorMount
 66
     1
 10
0.0
 20
0.0
 30
0.0
 70
     1
  0
VERTEX
  8
MotorMount
 10
-531.875
 20
-13.4999999999999
 42
-0.5773502691896
  0
VERTEX
  8
MotorMount
 10
-529.0625
 20
-11.8762023679041
 42
-0.5773502691896
  0
VERTEX
  8
MotorMount
 10
-529.0625
 20
-15.1237976320958
 42
-0.5773502691896
  0
SEQEND
  0
POLYLINE
  8
MotorMount
 66
     1
 10
0.0
 20
0.0
 30
0.0
 70
     1
  0
VERTEX
  8
MotorMount
 10
-588.120606076066
 20
-14.9906637611547
 42
0.0
  0
VERTEX
  8
MotorMount
 10
-593.777460325558
 20
-9.3338095116624
 42
-0.4142135623731
  0
VERTEX
  8
MotorMount
 10
-593.777460325558
 20
-6.2225396744416
 42
-0.4142135623731
  0
VERTEX
  8
MotorMount
 10
-590.666190488338
 20
-6.2225396744416
 42
0.0
  0
VERTEX
  8
MotorMount
 10
-585.009336238845
 20
-11.8793939239339
 42
-0.4142135623731
  0
VERTEX
  8
MotorMount
 10
-585.009336238845
 20
-14.9906637611547
 42
-0.4142135623731
  0
SEQEND
  0
POLYLINE
  8
MotorMount
 66
     1
 10
0.0
 20
0.0
 30
0.0
 70
     1
  0
VERTEX
  8
MotorMount
 10
-607.0
 20
0.0000000000001
 42
-0.5773502691896
  0
VERTEX
  8
MotorMount
 10
-596.5
 20
6.0621778264911
 42
-0.5773502691896
  0
VERTEX
  8
MotorMount
 10
-596.5
 20
-6.062177826491
 42
-0.5773502691896
  0
SEQEND
  0
POLYLINE
  8
MotorMount
 66
     1
 10
0.0
 20
0.0
 30
0.0
 70
     1
  0
VERTEX
  8
MotorMount
 10
-593.777460325558
 20
6.2225396744417
 42
-0.4142135623731
  0
VERTEX
  8
MotorMount
 10
-593.777460325558
 20
9.3338095116625
 42
0.0
  0
VERTEX
  8
MotorMount
 10
-588.120606076066
 20
14.9906637611549
 42
-0.4142135623731
  0
VERTEX
  8
MotorMount
 10
-585.009336238845
 20
14.9906637611549
 42
-0.4142135623731
  0
VERTEX
  8
MotorMount
 10
-585.009336238845
 20
11.8793939239341
 42
0.0
  0
VERTEX
  8
MotorMount
 10
-590.666190488338
 20
6.2225396744417
 42
-0.4142135623731
  0
SEQEND
  0
POLYLINE
  8
MotorMount
 66
     1
 10
0.0
 20
0.0
 30
0.0
 70
     1
  0
VERTEX
  8
MotorMount
 10
-609.333809511662
 20
6.2225396744417
 42
0.0
  0
VERTEX
  8
MotorMount
 10
-614.990663761155
 20
11.8793939239341
 42
-0.4142135623731
  0
VERTEX
  8
MotorMount
 10
-614.990663761155
 20
14.9906637611549
 42
-0.4142135623731
  0
VERTEX
  8
MotorMount
 10
-611.879393923934
 20
14.9906637611549
 42
0.0
  0
VERTEX
  8
MotorMount
 10
-606.222539674442
 20
9.3338095116625
 42
-0.4142135623731
  0
VERTEX
  8
MotorMount
 10
-606.222539674442
 20
6.2225396744417
 42
-0.4142135623731
  0
SEQEND
  0
POLYLINE
  8
MotorMount
 66
     1
 10
0.0
 20
0.0
 30
0.0
 70
     1
  0
VERTEX
  8
MotorMount
 10
-614.990663761155
 20
-14.9906637611547
 42
-0.4142135623731
  0
VERTEX
  8
MotorMount
 10
-614.990663761155
 20
-11.8793939239339
 42
0.0
  0
VERTEX
  8
MotorMount
 10
-609.333809511662
 20
-6.2225396744415
 42
-0.4142135623731
  0
VERTEX
  8
MotorMount
 10
-606.222539674442
 20
-6.2225396744415
 42
-0.4142135623731
  0
VERTEX
  8
MotorMount
 10
-606.222539674442
 20
-9.3338095116624
 42
0.0
  0
VERTEX
  8
MotorMount
 10
-611.879393923934
 20
-14.9906637611547
 42
-0.4142135623731
  0
SEQEND
  0
CIRCLE
  8
Props
 10
600.0
 20
0.0
 30
0.0
 40
273.0
  0
CIRCLE
  8
Props
 10
-300.0
 20
519.615242270663
 30
0.0
 40
273.0
  0
CIRCLE
  8
Props
 10
300.0
 20
519.615242270663
 30
0.0
 40
273.0
  0
CIRCLE
  8
Props
 10
-600.0
 20
0.0000000000001
 30
0.0
 40
273.0
  0
CIRCLE
  8
Props
 10
-300.0
 20
-519.615242270663
 30
0.0
 40
273.0
  0
CIRCLE
  8
Props
 10
300.0
 20
-519.615242270663
 30
0.0
 40
273.0
  0
CIRCLE
  8
Props
 10
600.0
 20
0.0
 30
0.0
 40
235.0
  0
CIRCLE
  8
Props
 10
-300.0
 20
519.615242270663
 30
0.0
 40
235.0
  0
CIRCLE
  8
Props
 10
300.0
 20
519.615242270663
 30
0.0
 40
235.0
  0
CIRCLE
  8
Props
 10
-600.0
 20
0.0000000000001
 30
0.0
 40
235.0
  0
CIRCLE
  8
Props
 10
-300.0
 20
-519.615242270663
 30
0.0
 40
235.0
  0
CIRCLE
  8
Props
 10
300.0
 20
-519.615242270663
 30
0.0
 40
235.0
  0
CIRCLE
  8
Motors
 10
-300.0
 20
519.615242270663
 30
0.0
 40
30.0
  0
CIRCLE
  8
Motors
 10
-600.0
 20
0.0000000000001
 30
0.0
 40
30.0
  0
CIRCLE
  8
Motors
 10
-300.0
 20
-519.615242270663
 30
0.0
 40
30.0
  0
CIRCLE
  8
Motors
 10
300.0
 20
-519.615242270663
 30
0.0
 40
30.0
  0
CIRCLE
  8
Motors
 10
600.0
 20
0.0
 30
0.0
 40
30.0
  0
CIRCLE
  8
Motors
 10
300.0
 20
519.615242270663
 30
0.0
 40
30.0
  0
POLYLINE
  8
CF_tubes
 66
     1
 10
0.0
 20
0.0
 30
0.0
 70
     1
  0
VERTEX
  8
CF_tubes
 10
-609.5
 20
-12.7
 42
0.0
  0
VERTEX
  8
CF_tubes
 10
609.5
 20
-12.7
 42
0.0
  0
VERTEX
  8
CF_tubes
 10
609.5
 20
12.7
 42
0.0
  0
VERTEX
  8
CF_tubes
 10
-609.5
 20
12.7
 42
0.0
  0
SEQEND
  0
POLYLINE
  8
CF_tubes
 66
     1
 10
0.0
 20
0.0
 30
0.0
 70
     1
  0
VERTEX
  8
CF_tubes
 10
-11.9758885393611
 20
46.1723948547079
 42
0.0
  0
VERTEX
  8
CF_tubes
 10
-311.975888539361
 20
565.787637125371
 42
0.0
  0
VERTEX
  8
CF_tubes
 10
-333.972933795486
 20
553.087637125371
 42
0.0
  0
VERTEX
  8
CF_tubes
 10
-33.9729337954859
 20
33.4723948547079
 42
0.0
  0
SEQEND
  0
POLYLINE
  8
CF_tubes
 66
     1
 10
0.0
 20
0.0
 30
0.0
 70
     1
  0
VERTEX
  8
CF_tubes
 10
33.9985226280624
 20
33.4576211353316
 42
0.0
  0
VERTEX
  8
CF_tubes
 10
333.998522628062
 20
553.072863405995
 42
0.0
  0
VERTEX
  8
CF_tubes
 10
312.001477371938
 20
565.772863405995
 42
0.0
  0
VERTEX
  8
CF_tubes
 10
12.0014773719377
 20
46.1576211353316
 42
0.0
  0
SEQEND
  0
POLYLINE
  8
CF_tubes
 66
     1
 10
0.0
 20
0.0
 30
0.0
 70
     1
  0
VERTEX
  8
CF_tubes
 10
33.9985226280624
 20
-33.4576211353316
 42
0.0
  0
VERTEX
  8
CF_tubes
 10
333.998522628062
 20
-553.072863405995
 42
0.0
  0
VERTEX
  8
CF_tubes
 10
312.001477371938
 20
-565.772863405995
 42
0.0
  0
VERTEX
  8
CF_tubes
 10
12.0014773719377
 20
-46.1576211353316
 42
0.0
  0
SEQEND
  0
POLYLINE
  8
CF_tubes
 66
     1
 10
0.0
 20
0.0
 30
0.0
 70
     1
  0
VERTEX
  8
CF_tubes
 10
-11.9758885393611
 20
-46.1723948547079
 42
0.0
  0
VERTEX
  8
CF_tubes
 10
-311.975888539361
 20
-565.787637125371
 42
0.0
  0
VERTEX
  8
CF_tubes
 10
-333.972933795486
 20
-553.087637125371
 42
0.0
  0
VERTEX
  8
CF_tubes
 10
-33.9729337954859
 20
-33.4723948547079
 42
0.0
  0
SEQEND
  0
POLYLINE
  8
BearingPillow
 66
     1
 10
0.0
 20
0.0
 30
0.0
 70
     1
  0
VERTEX
  8
BearingPillow
 10
-142.825
 20
16.75
 42
0.0
  0
VERTEX
  8
BearingPillow
 10
-146.0
 20
13.5
 42
0.0
  0
VERTEX
  8
BearingPillow
 10
-149.175
 20
16.75
 42
0.0
  0
VERTEX
  8
BearingPillow
 10
-149.175
 20
-16.75
 42
0.0
  0
VERTEX
  8
BearingPillow
 10
-146.0
 20
-13.5
 42
0.0
  0
VERTEX
  8
BearingPillow
 10
-142.825
 20
-16.75
 42
0.0
  0
SEQEND
  0
POLYLINE
  8
BearingPillow
 66
     1
 10
0.0
 20
0.0
 30
0.0
 70
     1
  0
VERTEX
  8
BearingPillow
 10
142.825
 20
16.75
 42
0.0
  0
VERTEX
  8
BearingPillow
 10
146.0
 20
13.5
 42
0.0
  0
VERTEX
  8
BearingPillow
 10
149.175
 20
16.75
 42
0.0
  0
VERTEX
  8
BearingPillow
 10
149.175
 20
-16.75
 42
0.0
  0
VERTEX
  8
BearingPillow
 10
146.0
 20
-13.5
 42
0.0
  0
VERTEX
  8
BearingPillow
 10
142.825
 20
-16.75
 42
0.0
  0
SEQEND
  0
POLYLINE
  8
TubeServo
 66
     1
 10
0.0
 20
0.0
 30
0.0
 70
     1
  0
VERTEX
  8
TubeServo
 10
-89.6300005912781
 20
-103.301798448563
 42
0.0
  0
VERTEX
  8
TubeServo
 10
-64.2300009727478
 20
-103.301798448563
 42
0.0
  0
VERTEX
  8
TubeServo
 10
-64.2300009727478
 20
23.6981996440884
 42
0.0
  0
VERTEX
  8
TubeServo
 10
-89.6300005912781
 20
23.6981996440884
 42
0.0
  0
SEQEND
  0
POLYLINE
  8
TubeServo
 66
     1
 10
0.0
 20
0.0
 30
0.0
 70
     1
  0
VERTEX
  8
TubeServo
 10
-109.950000286102
 20
-83.9977987384796
 42
0.0
  0
VERTEX
  8
TubeServo
 10
-61.6900010108948
 20
-83.9977987384796
 42
0.0
  0
VERTEX
  8
TubeServo
 10
-61.6900010108948
 20
-23.6981996440887
 42
0.0
  0
VERTEX
  8
TubeServo
 10
-109.950000286102
 20
-23.6981996440887
 42
0.0
  0
SEQEND
  0
POLYLINE
  8
TubeServo
 66
     1
 10
0.0
 20
0.0
 30
0.0
 70
     1
  0
VERTEX
  8
TubeServo
 10
-58.5300011634827
 20
-40.4017997837067
 42
0.0
  0
VERTEX
  8
TubeServo
 10
-50.5300011634827
 20
-40.4017997837067
 42
0.0
  0
VERTEX
  8
TubeServo
 10
-50.5300011634827
 20
39.5982002162933
 42
0.0
  0
VERTEX
  8
TubeServo
 10
-58.5300011634827
 20
39.5982002162933
 42
0.0
  0
SEQEND
  0
CIRCLE
  8
TubeServo
 10
-77.0
 20
19.0
 30
0.0
 40
2.2360679774998
  0
CIRCLE
  8
TubeServo
 10
-77.0
 20
-99.0
 30
0.0
 40
2.2360679774998
  0
POLYLINE
  8
CF_Upper
 66
     1
 10
0.0
 20
0.0
 30
0.0
 70
     1
  0
VERTEX
  8
CF_Upper
 10
-89.0754474858899
 20
-121.698263655825
 42
0.0
  0
VERTEX
  8
CF_Upper
 10
-60.7785194144412
 20
-138.047595397763
 42
0.1317340003691
  0
VERTEX
  8
CF_Upper
 10
-59.2776869289455
 20
-138.45
 42
-0.4
  0
VERTEX
  8
CF_Upper
 10
59.4337181147956
 20
-138.45
 42
0.1316524975874
  0
VERTEX
  8
CF_Upper
 10
60.9337181147956
 20
-138.048076211353
 42
0.0
  0
VERTEX
  8
CF_Upper
 10
88.9862249945459
 20
-121.851953812886
 42
0.1317340003691
  0
VERTEX
  8
CF_Upper
 10
90.0847817526917
 20
-120.753044962001
 42
-0.4
  0
VERTEX
  8
CF_Upper
 10
149.540479739795
 20
-17.696501784355
 42
0.1316524975874
  0
VERTEX
  8
CF_Upper
 10
149.941922827614
 20
-16.1963730635037
 42
0.0
  0
VERTEX
  8
CF_Upper
 10
149.931536073985
 20
16.2162994905578
 42
0.1314894971806
  0
VERTEX
  8
CF_Upper
 10
149.530092986167
 20
17.714505490644
 42
-0.4
  0
VERTEX
  8
CF_Upper
 10
90.17317175854
 20
120.599835618531
 42
0.1316524975874
  0
VERTEX
  8
CF_Upper
 10
89.0754474858898
 20
121.698263655825
 42
0.0
  0
VERTEX
  8
CF_Upper
 10
60.7785194144412
 20
138.047595397763
 42
0.1317340003691
  0
VERTEX
  8
CF_Upper
 10
59.2776869289456
 20
138.45
 42
-0.4
  0
VERTEX
  8
CF_Upper
 10
-59.4337181147957
 20
138.45
 42
0.1316524975874
  0
VERTEX
  8
CF_Upper
 10
-60.9337181147957
 20
138.048076211353
 42
0.0
  0
VERTEX
  8
CF_Upper
 10
-88.9862249945459
 20
121.851953812886
 42
0.1317340003691
  0
VERTEX
  8
CF_Upper
 10
-90.0847817526917
 20
120.753044962001
 42
-0.4
  0
VERTEX
  8
CF_Upper
 10
-149.540479739795
 20
17.696501784355
 42
0.1316524975874
  0
VERTEX
  8
CF_Upper
 10
-149.941922827614
 20
16.1963730635038
 42
0.0
  0
VERTEX
  8
CF_Upper
 10
-149.931536073985
 20
-16.2162994905578
 42
0.1314894971806
  0
VERTEX
  8
CF_Upper
 10
-149.530092986167
 20
-17.714505490644
 42
-0.4
  0
VERTEX
  8
CF_Upper
 10
-90.17317175854
 20
-120.599835618531
 42
0.1316524975874
  0
SEQEND
  0
POLYLINE
  8
CF_Upper
 66
     1
 10
0.0
 20
0.0
 30
0.0
 70
     1
  0
VERTEX
  8
CF_Upper
 10
147.875
 20
13.5
 42
0.5773502691896
  0
VERTEX
  8
CF_Upper
 10
145.0625
 20
15.1237976320958
 42
0.5773502691896
  0
VERTEX
  8
CF_Upper
 10
145.0625
 20
11.8762023679042
 42
0.5773502691896
  0
SEQEND
  0
POLYLINE
  8
CF_Upper
 66
     1
 10
0.0
 20
0.0
 30
0.0
 70
     1
  0
VERTEX
  8
CF_Upper
 10
147.875
 20
-13.5
 42
0.5773502691896
  0
VERTEX
  8
CF_Upper
 10
145.0625
 20
-11.8762023679042
 42
0.5773502691896
  0
VERTEX
  8
CF_Upper
 10
145.0625
 20
-15.1237976320958
 42
0.5773502691896
  0
SEQEND
  0
POLYLINE
  8
CF_Upper
 66
     1
 10
0.0
 20
0.0
 30
0.0
 70
     1
  0
VERTEX
  8
CF_Upper
 10
63.1836570489101
 20
133.189708952528
 42
0.5773502691896
  0
VERTEX
  8
CF_Upper
 10
60.3711570489101
 20
134.813506584624
 42
0.5773502691896
  0
VERTEX
  8
CF_Upper
 10
60.3711570489101
 20
131.565911320432
 42
0.5773502691896
  0
SEQEND
  0
POLYLINE
  8
CF_Upper
 66
     1
 10
0.0
 20
0.0
 30
0.0
 70
     1
  0
VERTEX
  8
CF_Upper
 10
86.5663429510899
 20
119.689708952528
 42
0.5773502691896
  0
VERTEX
  8
CF_Upper
 10
83.7538429510899
 20
121.313506584624
 42
0.5773502691896
  0
VERTEX
  8
CF_Upper
 10
83.7538429510899
 20
118.065911320432
 42
0.5773502691896
  0
SEQEND
  0
POLYLINE
  8
CF_Upper
 66
     1
 10
0.0
 20
0.0
 30
0.0
 70
     1
  0
VERTEX
  8
CF_Upper
 10
86.5663429510899
 20
-119.689708952528
 42
0.5773502691896
  0
VERTEX
  8
CF_Upper
 10
83.7538429510899
 20
-118.065911320432
 42
0.5773502691896
  0
VERTEX
  8
CF_Upper
 10
83.7538429510899
 20
-121.313506584624
 42
0.5773502691896
  0
SEQEND
  0
POLYLINE
  8
CF_Upper
 66
     1
 10
0.0
 20
0.0
 30
0.0
 70
     1
  0
VERTEX
  8
CF_Upper
 10
63.1836570489101
 20
-133.189708952528
 42
0.5773502691896
  0
VERTEX
  8
CF_Upper
 10
60.3711570489101
 20
-131.565911320432
 42
0.5773502691896
  0
VERTEX
  8
CF_Upper
 10
60.3711570489101
 20
-134.813506584624
 42
0.5773502691896
  0
SEQEND
  0
POLYLINE
  8
CF_Upper
 66
     1
 10
0.0
 20
0.0
 30
0.0
 70
     1
  0
VERTEX
  8
CF_Upper
 10
-144.125
 20
13.5
 42
0.5773502691896
  0
VERTEX
  8
CF_Upper
 10
-146.9375
 20
15.1237976320958
 42
0.5773502691896
  0
VERTEX
  8
CF_Upper
 10
-146.9375
 20
11.8762023679042
 42
0.5773502691896
  0
SEQEND
  0
POLYLINE
  8
CF_Upper
 66
     1
 10
0.0
 20
0.0
 30
0.0
 70
     1
  0
VERTEX
  8
CF_Upper
 10
-144.125
 20
-13.5
 42
0.5773502691896
  0
VERTEX
  8
CF_Upper
 10
-146.9375
 20
-11.8762023679042
 42
0.5773502691896
  0
VERTEX
  8
CF_Upper
 10
-146.9375
 20
-15.1237976320958
 42
0.5773502691896
  0
SEQEND
  0
POLYLINE
  8
CF_Upper
 66
     1
 10
0.0
 20
0.0
 30
0.0
 70
     1
  0
VERTEX
  8
CF_Upper
 10
-59.4336570489101
 20
133.189708952528
 42
0.5773502691896
  0
VERTEX
  8
CF_Upper
 10
-62.2461570489101
 20
134.813506584624
 42
0.5773502691896
  0
VERTEX
  8
CF_Upper
 10
-62.2461570489101
 20
131.565911320432
 42
0.5773502691896
  0
SEQEND
  0
POLYLINE
  8
CF_Upper
 66
     1
 10
0.0
 20
0.0
 30
0.0
 70
     1
  0
VERTEX
  8
CF_Upper
 10
-82.81634295109
 20
119.689708952528
 42
0.5773502691896
  0
VERTEX
  8
CF_Upper
 10
-85.62884295109
 20
121.313506584624
 42
0.5773502691896
  0
VERTEX
  8
CF_Upper
 10
-85.62884295109
 20
118.065911320432
 42
0.5773502691896
  0
SEQEND
  0
POLYLINE
  8
CF_Upper
 66
     1
 10
0.0
 20
0.0
 30
0.0
 70
     1
  0
VERTEX
  8
CF_Upper
 10
-82.8163429510899
 20
-119.689708952528
 42
0.5773502691896
  0
VERTEX
  8
CF_Upper
 10
-85.6288429510899
 20
-118.065911320432
 42
0.5773502691896
  0
VERTEX
  8
CF_Upper
 10
-85.6288429510899
 20
-121.313506584624
 42
0.5773502691896
  0
SEQEND
  0
POLYLINE
  8
CF_Upper
 66
     1
 10
0.0
 20
0.0
 30
0.0
 70
     1
  0
VERTEX
  8
CF_Upper
 10
-59.4336570489101
 20
-133.189708952528
 42
0.5773502691896
  0
VERTEX
  8
CF_Upper
 10
-62.2461570489101
 20
-131.565911320432
 42
0.5773502691896
  0
VERTEX
  8
CF_Upper
 10
-62.2461570489101
 20
-134.813506584624
 42
0.5773502691896
  0
SEQEND
  0
POLYLINE
  8
CF_Upper
 66
     1
 10
0.0
 20
0.0
 30
0.0
 70
     1
  0
VERTEX
  8
CF_Upper
 10
15.1836570489101
 20
50.0512701892219
 42
0.5773502691896
  0
VERTEX
  8
CF_Upper
 10
12.3711570489101
 20
51.6750678213178
 42
0.5773502691896
  0
VERTEX
  8
CF_Upper
 10
12.3711570489101
 20
48.4274725571261
 42
0.5773502691896
  0
SEQEND
  0
POLYLINE
  8
CF_Upper
 66
     1
 10
0.0
 20
0.0
 30
0.0
 70
     1
  0
VERTEX
  8
CF_Upper
 10
38.5663429510899
 20
36.5512701892219
 42
0.5773502691896
  0
VERTEX
  8
CF_Upper
 10
35.7538429510899
 20
38.1750678213178
 42
0.5773502691896
  0
VERTEX
  8
CF_Upper
 10
35.7538429510899
 20
34.9274725571261
 42
0.5773502691896
  0
SEQEND
  0
POLYLINE
  8
CF_Upper
 66
     1
 10
0.0
 20
0.0
 30
0.0
 70
     1
  0
VERTEX
  8
CF_Upper
 10
38.5663429510899
 20
-36.5512701892219
 42
0.5773502691896
  0
VERTEX
  8
CF_Upper
 10
35.7538429510899
 20
-34.9274725571261
 42
0.5773502691896
  0
VERTEX
  8
CF_Upper
 10
35.7538429510899
 20
-38.1750678213178
 42
0.5773502691896
  0
SEQEND
  0
POLYLINE
  8
CF_Upper
 66
     1
 10
0.0
 20
0.0
 30
0.0
 70
     1
  0
VERTEX
  8
CF_Upper
 10
15.1836570489101
 20
-50.0512701892219
 42
0.5773502691896
  0
VERTEX
  8
CF_Upper
 10
12.3711570489101
 20
-48.4274725571261
 42
0.5773502691896
  0
VERTEX
  8
CF_Upper
 10
12.3711570489101
 20
-51.6750678213178
 42
0.5773502691896
  0
SEQEND
  0
POLYLINE
  8
CF_Upper
 66
     1
 10
0.0
 20
0.0
 30
0.0
 70
     1
  0
VERTEX
  8
CF_Upper
 10
-11.4336570489101
 20
50.0512701892219
 42
0.5773502691896
  0
VERTEX
  8
CF_Upper
 10
-14.2461570489101
 20
51.6750678213178
 42
0.5773502691896
  0
VERTEX
  8
CF_Upper
 10
-14.2461570489101
 20
48.4274725571261
 42
0.5773502691896
  0
SEQEND
  0
POLYLINE
  8
CF_Upper
 66
     1
 10
0.0
 20
0.0
 30
0.0
 70
     1
  0
VERTEX
  8
CF_Upper
 10
-34.8163429510899
 20
36.5512701892219
 42
0.5773502691896
  0
VERTEX
  8
CF_Upper
 10
-37.6288429510899
 20
38.1750678213177
 42
0.5773502691896
  0
VERTEX
  8
CF_Upper
 10
-37.6288429510899
 20
34.9274725571261
 42
0.5773502691896
  0
SEQEND
  0
POLYLINE
  8
CF_Upper
 66
     1
 10
0.0
 20
0.0
 30
0.0
 70
     1
  0
VERTEX
  8
CF_Upper
 10
-34.8163429510899
 20
-36.5512701892219
 42
0.5773502691896
  0
VERTEX
  8
CF_Upper
 10
-37.6288429510899
 20
-34.9274725571261
 42
0.5773502691896
  0
VERTEX
  8
CF_Upper
 10
-37.6288429510899
 20
-38.1750678213178
 42
0.5773502691896
  0
SEQEND
  0
POLYLINE
  8
CF_Upper
 66
     1
 10
0.0
 20
0.0
 30
0.0
 70
     1
  0
VERTEX
  8
CF_Upper
 10
-11.4336570489101
 20
-50.0512701892219
 42
0.5773502691896
  0
VERTEX
  8
CF_Upper
 10
-14.2461570489101
 20
-48.4274725571261
 42
0.5773502691896
  0
VERTEX
  8
CF_Upper
 10
-14.2461570489101
 20
-51.6750678213178
 42
0.5773502691896
  0
SEQEND
  0
POLYLINE
  8
CF_Upper
 66
     1
 10
0.0
 20
0.0
 30
0.0
 70
     1
  0
VERTEX
  8
CF_Upper
 10
-59.0
 20
-45.0
 42
0.0
  0
VERTEX
  8
CF_Upper
 10
-49.0
 20
-45.0
 42
0.4142135623731
  0
VERTEX
  8
CF_Upper
 10
-44.0
 20
-40.0
 42
0.0
  0
VERTEX
  8
CF_Upper
 10
-44.0
 20
40.0
 42
0.4142135623731
  0
VERTEX
  8
CF_Upper
 10
-49.0
 20
45.0
 42
0.0
  0
VERTEX
  8
CF_Upper
 10
-59.0
 20
45.0
 42
0.4142135623731
  0
VERTEX
  8
CF_Upper
 10
-64.0
 20
40.0
 42
0.0
  0
VERTEX
  8
CF_Upper
 10
-64.0
 20
-40.0
 42
0.4142135623731
  0
SEQEND
  0
POLYLINE
  8
CF_Upper
 66
     1
 10
0.0
 20
0.0
 30
0.0
 70
     1
  0
VERTEX
  8
CF_Upper
 10
-20.7639320225002
 20
19.0
 42
0.5773502691896
  0
VERTEX
  8
CF_Upper
 10
-24.1180339887499
 20
20.9364916731037
 42
0.5773502691896
  0
VERTEX
  8
CF_Upper
 10
-24.1180339887499
 20
17.0635083268963
 42
0.5773502691896
  0
SEQEND
  0
POLYLINE
  8
CF_Upper
 66
     1
 10
0.0
 20
0.0
 30
0.0
 70
     1
  0
VERTEX
  8
CF_Upper
 10
-20.7639320225002
 20
-99.0
 42
0.5773502691896
  0
VERTEX
  8
CF_Upper
 10
-24.1180339887499
 20
-97.0635083268963
 42
0.5773502691896
  0
VERTEX
  8
CF_Upper
 10
-24.1180339887499
 20
-100.936491673104
 42
0.5773502691896
  0
SEQEND
  0
POLYLINE
  8
CF_DogBone
 66
     1
 10
0.0
 20
0.0
 30
0.0
 70
     1
  0
VERTEX
  8
CF_DogBone
 10
-59.2785194144412
 20
138.44951918641
 42
0.131633490478
  0
VERTEX
  8
CF_DogBone
 10
-60.7783252473966
 20
138.047707490485
 42
0.0
  0
VERTEX
  8
CF_DogBone
 10
-60.7785194144412
 20
138.047595397763
 42
0.0
  0
VERTEX
  8
CF_DogBone
 10
-85.8623763704861
 20
123.56667353819
 42
0.4144359746704
  0
VERTEX
  8
CF_DogBone
 10
-87.6908592235168
 20
116.733327679771
 42
0.0
  0
VERTEX
  8
CF_DogBone
 10
-41.5164802507445
 20
36.8901307060185
 42
-0.131836114349
  0
VERTEX
  8
CF_DogBone
 10
-40.8448012996456
 20
34.3870052801479
 42
0.0
  0
VERTEX
  8
CF_DogBone
 10
-40.8448012996456
 20
-0.00048081359
 42
0.0
  0
VERTEX
  8
CF_DogBone
 10
-40.8448012996456
 20
-34.387966907328
 42
-0.131836114349
  0
VERTEX
  8
CF_DogBone
 10
-41.5164802507445
 20
-36.8910923331985
 42
0.0
  0
VERTEX
  8
CF_DogBone
 10
-87.6908592235168
 20
-116.734289306951
 42
0.4144359746704
  0
VERTEX
  8
CF_DogBone
 10
-85.8623763704861
 20
-123.56763516537
 42
0.0
  0
VERTEX
  8
CF_DogBone
 10
-60.7785194144412
 20
-138.048557024943
 42
0.0
  0
VERTEX
  8
CF_DogBone
 10
-60.7783252473966
 20
-138.048669117665
 42
0.131633490478
  0
VERTEX
  8
CF_DogBone
 10
-59.2785194144412
 20
-138.45048081359
 42
-0.4
  0
VERTEX
  8
CF_DogBone
 10
59.2785194144412
 20
-138.45048081359
 42
0.131633490478
  0
VERTEX
  8
CF_DogBone
 10
60.7783252473965
 20
-138.048669117665
 42
0.0
  0
VERTEX
  8
CF_DogBone
 10
60.7785194144412
 20
-138.048557024943
 42
0.0
  0
VERTEX
  8
CF_DogBone
 10
85.8623763704861
 20
-123.56763516537
 42
0.4144359746704
  0
VERTEX
  8
CF_DogBone
 10
87.6908592235167
 20
-116.734289306951
 42
0.0
  0
VERTEX
  8
CF_DogBone
 10
41.5164802507445
 20
-36.8910923331985
 42
-0.131836114349
  0
VERTEX
  8
CF_DogBone
 10
40.8448012996456
 20
-34.387966907328
 42
0.0
  0
VERTEX
  8
CF_DogBone
 10
40.8448012996456
 20
-0.00048081359
 42
0.0
  0
VERTEX
  8
CF_DogBone
 10
40.8448012996456
 20
34.3870052801479
 42
-0.131836114349
  0
VERTEX
  8
CF_DogBone
 10
41.5164802507445
 20
36.8901307060185
 42
0.0
  0
VERTEX
  8
CF_DogBone
 10
87.6908592235168
 20
116.733327679771
 42
0.4144359746704
  0
VERTEX
  8
CF_DogBone
 10
85.8623763704861
 20
123.56667353819
 42
0.0
  0
VERTEX
  8
CF_DogBone
 10
60.7785194144412
 20
138.047595397763
 42
0.0
  0
VERTEX
  8
CF_DogBone
 10
60.7783252473966
 20
138.047707490485
 42
0.131633490478
  0
VERTEX
  8
CF_DogBone
 10
59.2785194144413
 20
138.44951918641
 42
-0.4
  0
SEQEND
  0
POLYLINE
  8
CF_DogBone
 66
     1
 10
0.0
 20
0.0
 30
0.0
 70
     1
  0
VERTEX
  8
CF_DogBone
 10
63.1836570489101
 20
133.189708952528
 42
0.5773502691896
  0
VERTEX
  8
CF_DogBone
 10
60.3711570489101
 20
134.813506584624
 42
0.5773502691896
  0
VERTEX
  8
CF_DogBone
 10
60.3711570489101
 20
131.565911320432
 42
0.5773502691896
  0
SEQEND
  0
POLYLINE
  8
CF_DogBone
 66
     1
 10
0.0
 20
0.0
 30
0.0
 70
     1
  0
VERTEX
  8
CF_DogBone
 10
86.5663429510899
 20
119.689708952528
 42
0.5773502691896
  0
VERTEX
  8
CF_DogBone
 10
83.7538429510899
 20
121.313506584624
 42
0.5773502691896
  0
VERTEX
  8
CF_DogBone
 10
83.7538429510899
 20
118.065911320432
 42
0.5773502691896
  0
SEQEND
  0
POLYLINE
  8
CF_DogBone
 66
     1
 10
0.0
 20
0.0
 30
0.0
 70
     1
  0
VERTEX
  8
CF_DogBone
 10
86.5663429510899
 20
-119.689708952528
 42
0.5773502691896
  0
VERTEX
  8
CF_DogBone
 10
83.7538429510899
 20
-118.065911320432
 42
0.5773502691896
  0
VERTEX
  8
CF_DogBone
 10
83.7538429510899
 20
-121.313506584624
 42
0.5773502691896
  0
SEQEND
  0
POLYLINE
  8
CF_DogBone
 66
     1
 10
0.0
 20
0.0
 30
0.0
 70
     1
  0
VERTEX
  8
CF_DogBone
 10
63.1836570489101
 20
-133.189708952528
 42
0.5773502691896
  0
VERTEX
  8
CF_DogBone
 10
60.3711570489101
 20
-131.565911320432
 42
0.5773502691896
  0
VERTEX
  8
CF_DogBone
 10
60.3711570489101
 20
-134.813506584624
 42
0.5773502691896
  0
SEQEND
  0
POLYLINE
  8
CF_DogBone
 66
     1
 10
0.0
 20
0.0
 30
0.0
 70
     1
  0
VERTEX
  8
CF_DogBone
 10
-59.4336570489101
 20
133.189708952528
 42
0.5773502691896
  0
VERTEX
  8
CF_DogBone
 10
-62.2461570489101
 20
134.813506584624
 42
0.5773502691896
  0
VERTEX
  8
CF_DogBone
 10
-62.2461570489101
 20
131.565911320432
 42
0.5773502691896
  0
SEQEND
  0
POLYLINE
  8
CF_DogBone
 66
     1
 10
0.0
 20
0.0
 30
0.0
 70
     1
  0
VERTEX
  8
CF_DogBone
 10
-82.81634295109
 20
119.689708952528
 42
0.5773502691896
  0
VERTEX
  8
CF_DogBone
 10
-85.62884295109
 20
121.313506584624
 42
0.5773502691896
  0
VERTEX
  8
CF_DogBone
 10
-85.62884295109
 20
118.065911320432
 42
0.5773502691896
  0
SEQEND
  0
POLYLINE
  8
CF_DogBone
 66
     1
 10
0.0
 20
0.0
 30
0.0
 70
     1
  0
VERTEX
  8
CF_DogBone
 10
-82.8163429510899
 20
-119.689708952528
 42
0.5773502691896
  0
VERTEX
  8
CF_DogBone
 10
-85.6288429510899
 20
-118.065911320432
 42
0.5773502691896
  0
VERTEX
  8
CF_DogBone
 10
-85.6288429510899
 20
-121.313506584624
 42
0.5773502691896
  0
SEQEND
  0
POLYLINE
  8
CF_DogBone
 66
     1
 10
0.0
 20
0.0
 30
0.0
 70
     1
  0
VERTEX
  8
CF_DogBone
 10
-59.4336570489101
 20
-133.189708952528
 42
0.5773502691896
  0
VERTEX
  8
CF_DogBone
 10
-62.2461570489101
 20
-131.565911320432
 42
0.5773502691896
  0
VERTEX
  8
CF_DogBone
 10
-62.2461570489101
 20
-134.813506584624
 42
0.5773502691896
  0
SEQEND
  0
POLYLINE
  8
CF_DogBone
 66
     1
 10
0.0
 20
0.0
 30
0.0
 70
     1
  0
VERTEX
  8
CF_DogBone
 10
15.1836570489101
 20
50.0512701892219
 42
0.5773502691896
  0
VERTEX
  8
CF_DogBone
 10
12.3711570489101
 20
51.6750678213178
 42
0.5773502691896
  0
VERTEX
  8
CF_DogBone
 10
12.3711570489101
 20
48.4274725571261
 42
0.5773502691896
  0
SEQEND
  0
POLYLINE
  8
CF_DogBone
 66
     1
 10
0.0
 20
0.0
 30
0.0
 70
     1
  0
VERTEX
  8
CF_DogBone
 10
38.5663429510899
 20
36.5512701892219
 42
0.5773502691896
  0
VERTEX
  8
CF_DogBone
 10
35.7538429510899
 20
38.1750678213178
 42
0.5773502691896
  0
VERTEX
  8
CF_DogBone
 10
35.7538429510899
 20
34.9274725571261
 42
0.5773502691896
  0
SEQEND
  0
POLYLINE
  8
CF_DogBone
 66
     1
 10
0.0
 20
0.0
 30
0.0
 70
     1
  0
VERTEX
  8
CF_DogBone
 10
38.5663429510899
 20
-36.5512701892219
 42
0.5773502691896
  0
VERTEX
  8
CF_DogBone
 10
35.7538429510899
 20
-34.9274725571261
 42
0.5773502691896
  0
VERTEX
  8
CF_DogBone
 10
35.7538429510899
 20
-38.1750678213178
 42
0.5773502691896
  0
SEQEND
  0
POLYLINE
  8
CF_DogBone
 66
     1
 10
0.0
 20
0.0
 30
0.0
 70
     1
  0
VERTEX
  8
CF_DogBone
 10
15.1836570489101
 20
-50.0512701892219
 42
0.5773502691896
  0
VERTEX
  8
CF_DogBone
 10
12.3711570489101
 20
-48.4274725571261
 42
0.5773502691896
  0
VERTEX
  8
CF_DogBone
 10
12.3711570489101
 20
-51.6750678213178
 42
0.5773502691896
  0
SEQEND
  0
POLYLINE
  8
CF_DogBone
 66
     1
 10
0.0
 20
0.0
 30
0.0
 70
     1
  0
VERTEX
  8
CF_DogBone
 10
-11.4336570489101
 20
50.0512701892219
 42
0.5773502691896
  0
VERTEX
  8
CF_DogBone
 10
-14.2461570489101
 20
51.6750678213178
 42
0.5773502691896
  0
VERTEX
  8
CF_DogBone
 10
-14.2461570489101
 20
48.4274725571261
 42
0.5773502691896
  0
SEQEND
  0
POLYLINE
  8
CF_DogBone
 66
     1
 10
0.0
 20
0.0
 30
0.0
 70
     1
  0
VERTEX
  8
CF_DogBone
 10
-34.8163429510899
 20
36.5512701892219
 42
0.5773502691896
  0
VERTEX
  8
CF_DogBone
 10
-37.6288429510899
 20
38.1750678213177
 42
0.5773502691896
  0
VERTEX
  8
CF_DogBone
 10
-37.6288429510899
 20
34.9274725571261
 42
0.5773502691896
  0
SEQEND
  0
POLYLINE
  8
CF_DogBone
 66
     1
 10
0.0
 20
0.0
 30
0.0
 70
     1
  0
VERTEX
  8
CF_DogBone
 10
-34.8163429510899
 20
-36.5512701892219
 42
0.5773502691896
  0
VERTEX
  8
CF_DogBone
 10
-37.6288429510899
 20
-34.9274725571261
 42
0.5773502691896
  0
VERTEX
  8
CF_DogBone
 10
-37.6288429510899
 20
-38.1750678213178
 42
0.5773502691896
  0
SEQEND
  0
POLYLINE
  8
CF_DogBone
 66
     1
 10
0.0
 20
0.0
 30
0.0
 70
     1
  0
VERTEX
  8
CF_DogBone
 10
-11.4336570489101
 20
-50.0512701892219
 42
0.5773502691896
  0
VERTEX
  8
CF_DogBone
 10
-14.2461570489101
 20
-48.4274725571261
 42
0.5773502691896
  0
VERTEX
  8
CF_DogBone
 10
-14.2461570489101
 20
-51.6750678213178
 42
0.5773502691896
  0
SEQEND
  0
ENDSEC
  0
EOF
