  0
SECTION
  2
HEADER
  9
$ACADVER
  1
AC1009
  9
$EXTMAX
 10
256.0
 20
281.0
 30
0.0
  9
$EXTMIN
 10
-256.0
 20
-281.0
 30
0.0
  9
$INSUNITS
 70
     4
  9
$LUNITS
 70
     2
  9
$LUPREC
 70
     4
  9
$MEASUREMENT
 70
     1
  0
ENDSEC
  0
SECTION
  2
TABLES
  0
TABLE
  2
LAYER
 70
     1
  0
LAYER
  2
0
 70
     0
 62
     7
  6
Continuous
  0
LAYER
  2
Default
 70
     0
 62
   -70
  6
Continuous
  0
LAYER
  2
Power_Core
 70
     0
 62
    -5
  6
Continuous
  0
LAYER
  2
Standoff
 70
     0
 62
    -7
  6
Continuous
  0
LAYER
  2
Top_plate
 70
     0
 62
     1
  6
Continuous
  0
LAYER
  2
Adapter_plate_holes
 70
     0
 62
   -70
  6
Continuous
  0
LAYER
  2
PixHawk
 70
     0
 62
     6
  6
Continuous
  0
LAYER
  2
Camera
 70
     0
 62
   254
  6
Continuous
  0
LAYER
  2
Transmitter
 70
     0
 62
     9
  6
Continuous
  0
LAYER
  2
CF_Plate_After
 70
     0
 62
    70
  6
Continuous
  0
LAYER
  2
CF_Plate_Before
 70
     0
 62
   -70
  6
Continuous
  0
LAYER
  2
Props
 70
     0
 62
   134
  6
Continuous
  0
LAYER
  2
Layer1
 70
     0
 62
   -70
  6
Continuous
  0
ENDTAB
  0
TABLE
  2
APPID
 70
     1
  0
APPID
  2
ACAD
 70
     0
  0
ENDTAB
  0
ENDSEC
  0
SECTION
  2
ENTITIES
  0
POLYLINE
  8
Default
 66
     1
 10
0.0
 20
0.0
 30
0.0
 70
     1
  0
VERTEX
  8
Default
 10
69.0
 20
-21.0
 42
0.0
  0
VERTEX
  8
Default
 10
109.0
 20
-21.0
 42
0.0
  0
VERTEX
  8
Default
 10
109.0
 20
21.0
 42
0.0
  0
VERTEX
  8
Default
 10
69.0
 20
21.0
 42
0.0
  0
SEQEND
  0
POLYLINE
  8
Default
 66
     1
 10
0.0
 20
0.0
 30
0.0
 70
     1
  0
VERTEX
  8
Default
 10
-58.0
 20
-25.0
 42
0.0
  0
VERTEX
  8
Default
 10
-8.0
 20
-25.0
 42
0.0
  0
VERTEX
  8
Default
 10
-8.0
 20
25.0
 42
0.0
  0
VERTEX
  8
Default
 10
-58.0
 20
25.0
 42
0.0
  0
SEQEND
  0
POLYLINE
  8
Default
 66
     1
 10
0.0
 20
0.0
 30
0.0
 70
     1
  0
VERTEX
  8
Default
 10
-39.0
 20
-22.5
 42
0.0
  0
VERTEX
  8
Default
 10
6.0
 20
-22.5
 42
0.0
  0
VERTEX
  8
Default
 10
6.0
 20
22.5
 42
0.0
  0
VERTEX
  8
Default
 10
-39.0
 20
22.5
 42
0.0
  0
SEQEND
  0
POLYLINE
  8
Default
 66
     1
 10
0.0
 20
0.0
 30
0.0
 70
     1
  0
VERTEX
  8
Default
 10
-32.0
 20
-16.5
 42
0.0
  0
VERTEX
  8
Default
 10
29.0
 20
-16.5
 42
0.0
  0
VERTEX
  8
Default
 10
29.0
 20
16.5
 42
0.0
  0
VERTEX
  8
Default
 10
-32.0
 20
16.5
 42
0.0
  0
SEQEND
  0
POLYLINE
  8
Default
 66
     1
 10
0.0
 20
0.0
 30
0.0
 70
     1
  0
VERTEX
  8
Default
 10
-63.0
 20
-30.0
 42
0.0
  0
VERTEX
  8
Default
 10
-53.0
 20
-30.0
 42
0.0
  0
VERTEX
  8
Default
 10
-53.0
 20
30.0
 42
0.0
  0
VERTEX
  8
Default
 10
-63.0
 20
30.0
 42
0.0
  0
SEQEND
  0
POLYLINE
  8
Default
 66
     1
 10
0.0
 20
0.0
 30
0.0
 70
     1
  0
VERTEX
  8
Default
 10
-41.0
 20
-30.0
 42
0.0
  0
VERTEX
  8
Default
 10
-31.0
 20
-30.0
 42
0.0
  0
VERTEX
  8
Default
 10
-31.0
 20
30.0
 42
0.0
  0
VERTEX
  8
Default
 10
-41.0
 20
30.0
 42
0.0
  0
SEQEND
  0
POLYLINE
  8
Default
 66
     1
 10
0.0
 20
0.0
 30
0.0
 70
     1
  0
VERTEX
  8
Default
 10
4.0
 20
-31.0
 42
0.0
  0
VERTEX
  8
Default
 10
14.0
 20
-31.0
 42
0.0
  0
VERTEX
  8
Default
 10
14.0
 20
29.0
 42
0.0
  0
VERTEX
  8
Default
 10
4.0
 20
29.0
 42
0.0
  0
SEQEND
  0
POLYLINE
  8
Default
 66
     1
 10
0.0
 20
0.0
 30
0.0
 70
     1
  0
VERTEX
  8
Default
 10
-28.197224362268
 20
-22.5
 42
0.5773502691896
  0
VERTEX
  8
Default
 10
-39.901387818866
 20
-15.7425980776938
 42
0.5773502691896
  0
VERTEX
  8
Default
 10
-39.901387818866
 20
-29.2574019223062
 42
0.5773502691896
  0
SEQEND
  0
POLYLINE
  8
Default
 66
     1
 10
0.0
 20
0.0
 30
0.0
 70
     1
  0
VERTEX
  8
Default
 10
-29.0
 20
-16.5
 42
0.5773502691896
  0
VERTEX
  8
Default
 10
-39.5
 20
-10.4378221735089
 42
0.5773502691896
  0
VERTEX
  8
Default
 10
-39.5
 20
-22.5621778264911
 42
0.5773502691896
  0
SEQEND
  0
POLYLINE
  8
Default
 66
     1
 10
0.0
 20
0.0
 30
0.0
 70
     1
  0
VERTEX
  8
Default
 10
16.5
 20
-22.5
 42
0.5773502691896
  0
VERTEX
  8
Default
 10
5.25
 20
-16.0048094716167
 42
0.5773502691896
  0
VERTEX
  8
Default
 10
5.25
 20
-28.9951905283833
 42
0.5773502691896
  0
SEQEND
  0
POLYLINE
  8
Default
 66
     1
 10
0.0
 20
0.0
 30
0.0
 70
     1
  0
VERTEX
  8
Default
 10
0.0
 20
-25.0
 42
0.5773502691896
  0
VERTEX
  8
Default
 10
-12.0
 20
-18.0717967697245
 42
0.5773502691896
  0
VERTEX
  8
Default
 10
-12.0
 20
-31.9282032302755
 42
0.5773502691896
  0
SEQEND
  0
POLYLINE
  8
Default
 66
     1
 10
0.0
 20
0.0
 30
0.0
 70
     1
  0
VERTEX
  8
Default
 10
-28.197224362268
 20
22.5
 42
0.5773502691896
  0
VERTEX
  8
Default
 10
-39.901387818866
 20
29.2574019223062
 42
0.5773502691896
  0
VERTEX
  8
Default
 10
-39.901387818866
 20
15.7425980776938
 42
0.5773502691896
  0
SEQEND
  0
POLYLINE
  8
Default
 66
     1
 10
0.0
 20
0.0
 30
0.0
 70
     1
  0
VERTEX
  8
Default
 10
0.0
 20
25.0
 42
0.5773502691896
  0
VERTEX
  8
Default
 10
-12.0
 20
31.9282032302755
 42
0.5773502691896
  0
VERTEX
  8
Default
 10
-12.0
 20
18.0717967697245
 42
0.5773502691896
  0
SEQEND
  0
POLYLINE
  8
Default
 66
     1
 10
0.0
 20
0.0
 30
0.0
 70
     1
  0
VERTEX
  8
Default
 10
16.802775637732
 20
22.5
 42
0.5773502691896
  0
VERTEX
  8
Default
 10
5.098612181134
 20
29.2574019223062
 42
0.5773502691896
  0
VERTEX
  8
Default
 10
5.098612181134
 20
15.7425980776938
 42
0.5773502691896
  0
SEQEND
  0
POLYLINE
  8
Default
 66
     1
 10
0.0
 20
0.0
 30
0.0
 70
     1
  0
VERTEX
  8
Default
 10
-50.0
 20
25.0
 42
0.5773502691896
  0
VERTEX
  8
Default
 10
-62.0
 20
31.9282032302755
 42
0.5773502691896
  0
VERTEX
  8
Default
 10
-62.0
 20
18.0717967697245
 42
0.5773502691896
  0
SEQEND
  0
POLYLINE
  8
Default
 66
     1
 10
0.0
 20
0.0
 30
0.0
 70
     1
  0
VERTEX
  8
Default
 10
-50.0
 20
-25.0
 42
0.5773502691896
  0
VERTEX
  8
Default
 10
-62.0
 20
-18.0717967697245
 42
0.5773502691896
  0
VERTEX
  8
Default
 10
-62.0
 20
-31.9282032302755
 42
0.5773502691896
  0
SEQEND
  0
POLYLINE
  8
Default
 66
     1
 10
0.0
 20
0.0
 30
0.0
 70
     1
  0
VERTEX
  8
Default
 10
-29.0
 20
16.5
 42
0.5773502691896
  0
VERTEX
  8
Default
 10
-39.5
 20
22.5621778264911
 42
0.5773502691896
  0
VERTEX
  8
Default
 10
-39.5
 20
10.4378221735089
 42
0.5773502691896
  0
SEQEND
  0
POLYLINE
  8
Default
 66
     1
 10
0.0
 20
0.0
 30
0.0
 70
     1
  0
VERTEX
  8
Default
 10
32.0
 20
16.5
 42
0.5773502691896
  0
VERTEX
  8
Default
 10
21.5
 20
22.5621778264911
 42
0.5773502691896
  0
VERTEX
  8
Default
 10
21.5
 20
10.4378221735089
 42
0.5773502691896
  0
SEQEND
  0
POLYLINE
  8
Default
 66
     1
 10
0.0
 20
0.0
 30
0.0
 70
     1
  0
VERTEX
  8
Default
 10
32.0
 20
-16.5
 42
0.5773502691896
  0
VERTEX
  8
Default
 10
21.5
 20
-10.4378221735089
 42
0.5773502691896
  0
VERTEX
  8
Default
 10
21.5
 20
-22.5621778264911
 42
0.5773502691896
  0
SEQEND
  0
POLYLINE
  8
Default
 66
     1
 10
0.0
 20
0.0
 30
0.0
 70
     1
  0
VERTEX
  8
Default
 10
69.0
 20
-12.5
 42
0.0
  0
VERTEX
  8
Default
 10
101.0
 20
-12.5
 42
0.0
  0
VERTEX
  8
Default
 10
101.0
 20
12.5
 42
0.0
  0
VERTEX
  8
Default
 10
69.0
 20
12.5
 42
0.0
  0
SEQEND
  0
CIRCLE
  8
Default
 10
74.5
 20
8.0
 30
0.0
 40
1.5
  0
CIRCLE
  8
Default
 10
74.5
 20
-8.0
 30
0.0
 40
1.5
  0
CIRCLE
  8
Default
 10
95.5
 20
-8.0
 30
0.0
 40
1.5
  0
CIRCLE
  8
Default
 10
95.5
 20
8.0
 30
0.0
 40
1.5
  0
CIRCLE
  8
Power_Core
 10
-58.0
 20
25.0
 30
0.0
 40
2.0
  0
POLYLINE
  8
Power_Core
 66
     1
 10
0.0
 20
0.0
 30
0.0
 70
     1
  0
VERTEX
  8
Power_Core
 10
-58.0
 20
-30.0
 42
0.0
  0
VERTEX
  8
Power_Core
 10
-8.0
 20
-30.0
 42
0.4142135623731
  0
VERTEX
  8
Power_Core
 10
-3.0
 20
-25.0
 42
0.0
  0
VERTEX
  8
Power_Core
 10
-3.0
 20
25.0
 42
0.4142135623731
  0
VERTEX
  8
Power_Core
 10
-8.0
 20
30.0
 42
0.0
  0
VERTEX
  8
Power_Core
 10
-58.0
 20
30.0
 42
0.4142135623731
  0
VERTEX
  8
Power_Core
 10
-63.0
 20
25.0
 42
0.0
  0
VERTEX
  8
Power_Core
 10
-63.0
 20
-25.0
 42
0.4142135623731
  0
SEQEND
  0
CIRCLE
  8
Power_Core
 10
-8.0
 20
25.0
 30
0.0
 40
2.0
  0
CIRCLE
  8
Power_Core
 10
-8.0
 20
-25.0
 30
0.0
 40
2.0
  0
CIRCLE
  8
Power_Core
 10
-58.0
 20
-25.0
 30
0.0
 40
2.0
  0
CIRCLE
  8
Standoff
 10
-69.0
 20
-32.5
 30
0.0
 40
4.5
  0
CIRCLE
  8
Standoff
 10
-69.0
 20
32.5
 30
0.0
 40
4.5
  0
CIRCLE
  8
Standoff
 10
-109.0
 20
21.0
 30
0.0
 40
4.5
  0
CIRCLE
  8
Standoff
 10
-109.0
 20
-21.0
 30
0.0
 40
4.5
  0
CIRCLE
  8
Standoff
 10
69.0
 20
32.5
 30
0.0
 40
4.5
  0
CIRCLE
  8
Standoff
 10
69.0
 20
-32.5
 30
0.0
 40
4.5
  0
CIRCLE
  8
Standoff
 10
109.0
 20
21.0
 30
0.0
 40
4.5
  0
CIRCLE
  8
Standoff
 10
109.0
 20
-21.0
 30
0.0
 40
4.5
  0
CIRCLE
  8
Standoff
 10
-109.0
 20
0.0
 30
0.0
 40
4.5
  0
POLYLINE
  8
Top_plate
 66
     1
 10
0.0
 20
0.0
 30
0.0
 70
     1
  0
VERTEX
  8
Top_plate
 10
33.0
 20
43.5
 42
0.0
  0
VERTEX
  8
Top_plate
 10
33.0
 20
54.0
 42
0.4142135623731
  0
VERTEX
  8
Top_plate
 10
27.0
 20
60.0
 42
0.0
  0
VERTEX
  8
Top_plate
 10
-26.0
 20
60.0
 42
0.4142135623731
  0
VERTEX
  8
Top_plate
 10
-32.0
 20
54.0
 42
0.0
  0
VERTEX
  8
Top_plate
 10
-32.0
 20
43.5
 42
-0.4142135623731
  0
VERTEX
  8
Top_plate
 10
-38.0
 20
37.5
 42
0.0
  0
VERTEX
  8
Top_plate
 10
-68.6449593747625
 20
37.5
 42
0.1722530851707
  0
VERTEX
  8
Top_plate
 10
-72.4285151253293
 20
36.1566840006976
 42
0.0
  0
VERTEX
  8
Top_plate
 10
-111.19774589456
 20
4.6566840006976
 42
0.4759705080055
  0
VERTEX
  8
Top_plate
 10
-111.19774589456
 20
-4.6566840006976
 42
0.0
  0
VERTEX
  8
Top_plate
 10
-72.4285151253292
 20
-36.1566840006976
 42
0.1542231040977
  0
VERTEX
  8
Top_plate
 10
-69.0660911431018
 20
-37.4852024221153
 42
-0.3112982094923
  0
VERTEX
  8
Top_plate
 10
-63.7436114557206
 20
-41.7352024221153
 42
0.3306695326692
  0
VERTEX
  8
Top_plate
 10
-58.0
 20
-46.0
 42
0.0
  0
VERTEX
  8
Top_plate
 10
-38.0
 20
-46.0
 42
-0.4142135623731
  0
VERTEX
  8
Top_plate
 10
-32.0
 20
-52.0
 42
0.0
  0
VERTEX
  8
Top_plate
 10
-32.0
 20
-54.0
 42
0.4142135623731
  0
VERTEX
  8
Top_plate
 10
-26.0
 20
-60.0
 42
0.0
  0
VERTEX
  8
Top_plate
 10
26.5
 20
-60.0
 42
0.4142135623731
  0
VERTEX
  8
Top_plate
 10
32.5
 20
-54.0
 42
0.0
  0
VERTEX
  8
Top_plate
 10
32.5
 20
-43.5
 42
-0.4142135623731
  0
VERTEX
  8
Top_plate
 10
38.5
 20
-37.5
 42
0.0
  0
VERTEX
  8
Top_plate
 10
68.64225662116
 20
-37.5
 42
0.1734491494725
  0
VERTEX
  8
Top_plate
 10
72.447403916885
 20
-36.1390574536037
 42
0.0
  0
VERTEX
  8
Top_plate
 10
96.9355856461746
 20
-16.0528353241399
 42
0.0075679398548
  0
VERTEX
  8
Top_plate
 10
97.0742506707463
 20
-15.9355412856515
 42
0.4734655988051
  0
VERTEX
  8
Top_plate
 10
96.0600036226577
 20
16.9540241708999
 42
-0.0067156738897
  0
VERTEX
  8
Top_plate
 10
95.9335767193098
 20
17.0539824317737
 42
0.0
  0
VERTEX
  8
Top_plate
 10
72.4290167472451
 20
36.1562202598219
 42
0.1722846340055
  0
VERTEX
  8
Top_plate
 10
68.6448903101365
 20
37.5
 42
0.0
  0
VERTEX
  8
Top_plate
 10
39.0
 20
37.5
 42
-0.4142135623731
  0
SEQEND
  0
POLYLINE
  8
Top_plate
 66
     1
 10
0.0
 20
0.0
 30
0.0
 70
     1
  0
VERTEX
  8
Top_plate
 10
65.4537522266368
 20
-8.3565008906547
 42
0.5304705265923
  0
VERTEX
  8
Top_plate
 10
58.75
 20
-5.10288568297
 42
0.2679491924311
  0
VERTEX
  8
Top_plate
 10
56.5
 20
-9.0
 42
0.0
  0
VERTEX
  8
Top_plate
 10
51.5
 20
-9.0
 42
0.5773502691896
  0
VERTEX
  8
Top_plate
 10
44.75
 20
-5.10288568297
 42
0.2679491924311
  0
VERTEX
  8
Top_plate
 10
42.5
 20
-9.0
 42
0.0
  0
VERTEX
  8
Top_plate
 10
37.5
 20
-9.0
 42
0.5773502691896
  0
VERTEX
  8
Top_plate
 10
30.75
 20
-5.10288568297
 42
0.2679491924311
  0
VERTEX
  8
Top_plate
 10
28.5
 20
-9.0
 42
0.0
  0
VERTEX
  8
Top_plate
 10
21.0
 20
-9.0
 42
-0.4142135623731
  0
VERTEX
  8
Top_plate
 10
16.0
 20
-4.0
 42
0.0
  0
VERTEX
  8
Top_plate
 10
16.0
 20
4.0
 42
-0.4142135623731
  0
VERTEX
  8
Top_plate
 10
21.0
 20
9.0
 42
0.0
  0
VERTEX
  8
Top_plate
 10
63.0
 20
9.0
 42
-0.4142135623731
  0
VERTEX
  8
Top_plate
 10
68.0
 20
4.0
 42
0.0
  0
VERTEX
  8
Top_plate
 10
68.0
 20
-4.0
 42
-0.2708043419943
  0
SEQEND
  0
POLYLINE
  8
Top_plate
 66
     1
 10
0.0
 20
0.0
 30
0.0
 70
     1
  0
VERTEX
  8
Top_plate
 10
88.0
 20
8.0
 42
0.0
  0
VERTEX
  8
Top_plate
 10
82.0
 20
8.0
 42
0.4579817798031
  0
VERTEX
  8
Top_plate
 10
73.4007946355932
 20
15.4190125735747
 42
0.0830872445475
  0
VERTEX
  8
Top_plate
 10
74.0
 20
19.0
 42
0.0
  0
VERTEX
  8
Top_plate
 10
74.0
 20
22.0
 42
0.0936498514133
  0
VERTEX
  8
Top_plate
 10
73.2415756162619
 20
26.0137425049932
 42
0.0449876445094
  0
VERTEX
  8
Top_plate
 10
74.3333197027392
 20
26.8769936023179
 42
0.0
  0
VERTEX
  8
Top_plate
 10
90.5874690585176
 20
13.6671897576293
 42
0.2174870027635
  0
SEQEND
  0
POLYLINE
  8
Top_plate
 66
     1
 10
0.0
 20
0.0
 30
0.0
 70
     1
  0
VERTEX
  8
Top_plate
 10
88.0
 20
-8.0
 42
0.0
  0
VERTEX
  8
Top_plate
 10
82.0
 20
-8.0
 42
-0.4579817798031
  0
VERTEX
  8
Top_plate
 10
73.4007946355932
 20
-15.4190125735747
 42
-0.0830872445475
  0
VERTEX
  8
Top_plate
 10
74.0
 20
-19.0
 42
0.0
  0
VERTEX
  8
Top_plate
 10
74.0
 20
-22.0
 42
-0.0936498514133
  0
VERTEX
  8
Top_plate
 10
73.2415756162619
 20
-26.0137425049932
 42
-0.0449876445094
  0
VERTEX
  8
Top_plate
 10
74.3333197027392
 20
-26.8769936023179
 42
0.0
  0
VERTEX
  8
Top_plate
 10
90.5874690585176
 20
-13.6671897576293
 42
-0.2174870027635
  0
SEQEND
  0
POLYLINE
  8
Top_plate
 66
     1
 10
0.0
 20
0.0
 30
0.0
 70
     1
  0
VERTEX
  8
Top_plate
 10
34.5
 20
-9.0
 42
0.5773502691896
  0
VERTEX
  8
Top_plate
 10
32.25
 20
-7.7009618943233
 42
0.5773502691896
  0
VERTEX
  8
Top_plate
 10
32.25
 20
-10.2990381056767
 42
0.5773502691896
  0
SEQEND
  0
POLYLINE
  8
Top_plate
 66
     1
 10
0.0
 20
0.0
 30
0.0
 70
     1
  0
VERTEX
  8
Top_plate
 10
48.5
 20
-9.0
 42
0.5773502691896
  0
VERTEX
  8
Top_plate
 10
46.25
 20
-7.7009618943233
 42
0.5773502691896
  0
VERTEX
  8
Top_plate
 10
46.25
 20
-10.2990381056767
 42
0.5773502691896
  0
SEQEND
  0
POLYLINE
  8
Top_plate
 66
     1
 10
0.0
 20
0.0
 30
0.0
 70
     1
  0
VERTEX
  8
Top_plate
 10
62.5
 20
-9.0
 42
0.5773502691896
  0
VERTEX
  8
Top_plate
 10
60.25
 20
-7.7009618943233
 42
0.5773502691896
  0
VERTEX
  8
Top_plate
 10
60.25
 20
-10.2990381056767
 42
0.5773502691896
  0
SEQEND
  0
POLYLINE
  8
Top_plate
 66
     1
 10
0.0
 20
0.0
 30
0.0
 70
     1
  0
VERTEX
  8
Top_plate
 10
-73.0
 20
7.0
 42
0.0
  0
VERTEX
  8
Top_plate
 10
-87.5166852264521
 20
7.0
 42
0.0166805839233
  0
VERTEX
  8
Top_plate
 10
-87.5
 20
7.5
 42
0.2429365619834
  0
VERTEX
  8
Top_plate
 10
-90.6574042333913
 20
13.614888552364
 42
0.0
  0
VERTEX
  8
Top_plate
 10
-74.334008835878
 20
26.8776473128436
 42
0.0589401041765
  0
VERTEX
  8
Top_plate
 10
-72.875
 20
25.7883031206706
 42
0.1316524975874
  0
VERTEX
  8
Top_plate
 10
-69.0
 20
24.75
 42
0.0
  0
VERTEX
  8
Top_plate
 10
-69.0
 20
19.4833147735479
 42
0.2504916501727
  0
VERTEX
  8
Top_plate
 10
-73.0
 20
12.0
 42
0.0
  0
SEQEND
  0
POLYLINE
  8
Top_plate
 66
     1
 10
0.0
 20
0.0
 30
0.0
 70
     1
  0
VERTEX
  8
Top_plate
 10
-73.0
 20
-7.0
 42
0.0
  0
VERTEX
  8
Top_plate
 10
-87.5166852264521
 20
-7.0
 42
-0.0166805839233
  0
VERTEX
  8
Top_plate
 10
-87.5
 20
-7.5
 42
-0.2429365619834
  0
VERTEX
  8
Top_plate
 10
-90.6574042333913
 20
-13.614888552364
 42
0.0
  0
VERTEX
  8
Top_plate
 10
-74.334008835878
 20
-26.8776473128436
 42
-0.0589401041765
  0
VERTEX
  8
Top_plate
 10
-72.875
 20
-25.7883031206706
 42
-0.1316524975874
  0
VERTEX
  8
Top_plate
 10
-69.0
 20
-24.75
 42
0.0
  0
VERTEX
  8
Top_plate
 10
-69.0
 20
-19.4833147735479
 42
-0.2504916501727
  0
VERTEX
  8
Top_plate
 10
-73.0
 20
-12.0
 42
0.0
  0
SEQEND
  0
POLYLINE
  8
Top_plate
 66
     1
 10
0.0
 20
0.0
 30
0.0
 70
     1
  0
VERTEX
  8
Top_plate
 10
-67.25
 20
-32.5
 42
0.5773502691896
  0
VERTEX
  8
Top_plate
 10
-69.875
 20
-30.9844555433772
 42
0.5773502691896
  0
VERTEX
  8
Top_plate
 10
-69.875
 20
-34.0155444566228
 42
0.5773502691896
  0
SEQEND
  0
POLYLINE
  8
Top_plate
 66
     1
 10
0.0
 20
0.0
 30
0.0
 70
     1
  0
VERTEX
  8
Top_plate
 10
-67.25
 20
32.5
 42
0.5773502691896
  0
VERTEX
  8
Top_plate
 10
-69.875
 20
34.0155444566228
 42
0.5773502691896
  0
VERTEX
  8
Top_plate
 10
-69.875
 20
30.9844555433772
 42
0.5773502691896
  0
SEQEND
  0
POLYLINE
  8
Top_plate
 66
     1
 10
0.0
 20
0.0
 30
0.0
 70
     1
  0
VERTEX
  8
Top_plate
 10
70.75
 20
32.5
 42
0.5773502691896
  0
VERTEX
  8
Top_plate
 10
68.125
 20
34.0155444566228
 42
0.5773502691896
  0
VERTEX
  8
Top_plate
 10
68.125
 20
30.9844555433772
 42
0.5773502691896
  0
SEQEND
  0
POLYLINE
  8
Top_plate
 66
     1
 10
0.0
 20
0.0
 30
0.0
 70
     1
  0
VERTEX
  8
Top_plate
 10
70.75
 20
-32.5
 42
0.5773502691896
  0
VERTEX
  8
Top_plate
 10
68.125
 20
-30.9844555433772
 42
0.5773502691896
  0
VERTEX
  8
Top_plate
 10
68.125
 20
-34.0155444566228
 42
0.5773502691896
  0
SEQEND
  0
POLYLINE
  8
Top_plate
 66
     1
 10
0.0
 20
0.0
 30
0.0
 70
     1
  0
VERTEX
  8
Top_plate
 10
-107.25
 20
0.0
 42
0.5773502691896
  0
VERTEX
  8
Top_plate
 10
-109.875
 20
1.5155444566228
 42
0.5773502691896
  0
VERTEX
  8
Top_plate
 10
-109.875
 20
-1.5155444566228
 42
0.5773502691896
  0
SEQEND
  0
POLYLINE
  8
Top_plate
 66
     1
 10
0.0
 20
0.0
 30
0.0
 70
     1
  0
VERTEX
  8
Top_plate
 10
-91.5
 20
7.5
 42
0.5773502691896
  0
VERTEX
  8
Top_plate
 10
-96.75
 20
10.5310889132455
 42
0.5773502691896
  0
VERTEX
  8
Top_plate
 10
-96.75
 20
4.4689110867545
 42
0.5773502691896
  0
SEQEND
  0
POLYLINE
  8
Top_plate
 66
     1
 10
0.0
 20
0.0
 30
0.0
 70
     1
  0
VERTEX
  8
Top_plate
 10
-91.5
 20
-7.5
 42
0.5773502691896
  0
VERTEX
  8
Top_plate
 10
-96.75
 20
-4.4689110867545
 42
0.5773502691896
  0
VERTEX
  8
Top_plate
 10
-96.75
 20
-10.5310889132455
 42
0.5773502691896
  0
SEQEND
  0
POLYLINE
  8
Top_plate
 66
     1
 10
0.0
 20
0.0
 30
0.0
 70
     1
  0
VERTEX
  8
Top_plate
 10
-73.5
 20
0.0
 42
0.5773502691896
  0
VERTEX
  8
Top_plate
 10
-78.75
 20
3.0310889132455
 42
0.5773502691896
  0
VERTEX
  8
Top_plate
 10
-78.75
 20
-3.0310889132455
 42
0.5773502691896
  0
SEQEND
  0
POLYLINE
  8
Top_plate
 66
     1
 10
0.0
 20
0.0
 30
0.0
 70
     1
  0
VERTEX
  8
Top_plate
 10
-64.0
 20
-17.0
 42
0.0
  0
VERTEX
  8
Top_plate
 10
-47.0
 20
-17.0
 42
0.4142135623731
  0
VERTEX
  8
Top_plate
 10
-42.0
 20
-12.0
 42
0.0
  0
VERTEX
  8
Top_plate
 10
-42.0
 20
12.0
 42
0.4142135623731
  0
VERTEX
  8
Top_plate
 10
-47.0
 20
17.0
 42
0.0
  0
VERTEX
  8
Top_plate
 10
-64.0
 20
17.0
 42
0.4142135623731
  0
VERTEX
  8
Top_plate
 10
-69.0
 20
12.0
 42
0.0
  0
VERTEX
  8
Top_plate
 10
-69.0
 20
-12.0
 42
0.4142135623731
  0
SEQEND
  0
POLYLINE
  8
Top_plate
 66
     1
 10
0.0
 20
0.0
 30
0.0
 70
     1
  0
VERTEX
  8
Top_plate
 10
-25.0
 20
-17.0
 42
0.0
  0
VERTEX
  8
Top_plate
 10
2.0
 20
-17.0
 42
0.4142135623731
  0
VERTEX
  8
Top_plate
 10
7.0
 20
-12.0
 42
0.0
  0
VERTEX
  8
Top_plate
 10
7.0
 20
12.0
 42
0.4142135623731
  0
VERTEX
  8
Top_plate
 10
2.0
 20
17.0
 42
0.0
  0
VERTEX
  8
Top_plate
 10
-25.0
 20
17.0
 42
0.4142135623731
  0
VERTEX
  8
Top_plate
 10
-30.0
 20
12.0
 42
0.0
  0
VERTEX
  8
Top_plate
 10
-30.0
 20
-12.0
 42
0.4142135623731
  0
SEQEND
  0
POLYLINE
  8
Top_plate
 66
     1
 10
0.0
 20
0.0
 30
0.0
 70
     1
  0
VERTEX
  8
Top_plate
 10
37.0
 20
14.0
 42
0.0
  0
VERTEX
  8
Top_plate
 10
63.0
 20
14.0
 42
0.4142135623731
  0
VERTEX
  8
Top_plate
 10
68.0
 20
19.0
 42
0.0
  0
VERTEX
  8
Top_plate
 10
68.0
 20
22.0
 42
0.4142135623731
  0
VERTEX
  8
Top_plate
 10
63.0
 20
27.0
 42
0.0
  0
VERTEX
  8
Top_plate
 10
37.0
 20
27.0
 42
0.4142135623731
  0
VERTEX
  8
Top_plate
 10
32.0
 20
22.0
 42
0.0
  0
VERTEX
  8
Top_plate
 10
32.0
 20
19.0
 42
0.4142135623731
  0
SEQEND
  0
POLYLINE
  8
Top_plate
 66
     1
 10
0.0
 20
0.0
 30
0.0
 70
     1
  0
VERTEX
  8
Top_plate
 10
37.0
 20
-27.0
 42
0.0
  0
VERTEX
  8
Top_plate
 10
63.0
 20
-27.0
 42
0.4142135623731
  0
VERTEX
  8
Top_plate
 10
68.0
 20
-22.0
 42
0.0
  0
VERTEX
  8
Top_plate
 10
68.0
 20
-19.0
 42
0.4142135623731
  0
VERTEX
  8
Top_plate
 10
63.0
 20
-14.0
 42
0.0
  0
VERTEX
  8
Top_plate
 10
37.0
 20
-14.0
 42
0.4142135623731
  0
VERTEX
  8
Top_plate
 10
32.0
 20
-19.0
 42
0.0
  0
VERTEX
  8
Top_plate
 10
32.0
 20
-22.0
 42
0.4142135623731
  0
SEQEND
  0
POLYLINE
  8
Top_plate
 66
     1
 10
0.0
 20
0.0
 30
0.0
 70
     1
  0
VERTEX
  8
Top_plate
 10
76.0
 20
8.0
 42
0.5773502691896
  0
VERTEX
  8
Top_plate
 10
73.75
 20
9.2990381056767
 42
0.5773502691896
  0
VERTEX
  8
Top_plate
 10
73.75
 20
6.7009618943233
 42
0.5773502691896
  0
SEQEND
  0
POLYLINE
  8
Top_plate
 66
     1
 10
0.0
 20
0.0
 30
0.0
 70
     1
  0
VERTEX
  8
Top_plate
 10
76.0
 20
-8.0
 42
0.5773502691896
  0
VERTEX
  8
Top_plate
 10
73.75
 20
-6.7009618943233
 42
0.5773502691896
  0
VERTEX
  8
Top_plate
 10
73.75
 20
-9.2990381056767
 42
0.5773502691896
  0
SEQEND
  0
POLYLINE
  8
Top_plate
 66
     1
 10
0.0
 20
0.0
 30
0.0
 70
     1
  0
VERTEX
  8
Top_plate
 10
97.0
 20
-8.0
 42
0.5773502691896
  0
VERTEX
  8
Top_plate
 10
94.75
 20
-6.7009618943233
 42
0.5773502691896
  0
VERTEX
  8
Top_plate
 10
94.75
 20
-9.2990381056767
 42
0.5773502691896
  0
SEQEND
  0
POLYLINE
  8
Top_plate
 66
     1
 10
0.0
 20
0.0
 30
0.0
 70
     1
  0
VERTEX
  8
Top_plate
 10
97.0
 20
8.0
 42
0.5773502691896
  0
VERTEX
  8
Top_plate
 10
94.75
 20
9.2990381056767
 42
0.5773502691896
  0
VERTEX
  8
Top_plate
 10
94.75
 20
6.7009618943233
 42
0.5773502691896
  0
SEQEND
  0
POLYLINE
  8
Top_plate
 66
     1
 10
0.0
 20
0.0
 30
0.0
 70
     1
  0
VERTEX
  8
Top_plate
 10
30.0
 20
16.5
 42
0.5773502691896
  0
VERTEX
  8
Top_plate
 10
28.5
 20
17.3660254037844
 42
0.5773502691896
  0
VERTEX
  8
Top_plate
 10
28.5
 20
15.6339745962156
 42
0.5773502691896
  0
SEQEND
  0
POLYLINE
  8
Top_plate
 66
     1
 10
0.0
 20
0.0
 30
0.0
 70
     1
  0
VERTEX
  8
Top_plate
 10
7.802775637732
 20
22.5
 42
0.5773502691896
  0
VERTEX
  8
Top_plate
 10
5.098612181134
 20
24.0612494995996
 42
0.5773502691896
  0
VERTEX
  8
Top_plate
 10
5.098612181134
 20
20.9387505004004
 42
0.5773502691896
  0
SEQEND
  0
POLYLINE
  8
Top_plate
 66
     1
 10
0.0
 20
0.0
 30
0.0
 70
     1
  0
VERTEX
  8
Top_plate
 10
-6.0
 20
25.0
 42
0.5773502691896
  0
VERTEX
  8
Top_plate
 10
-9.0
 20
26.7320508075689
 42
0.5773502691896
  0
VERTEX
  8
Top_plate
 10
-9.0
 20
23.2679491924311
 42
0.5773502691896
  0
SEQEND
  0
POLYLINE
  8
Top_plate
 66
     1
 10
0.0
 20
0.0
 30
0.0
 70
     1
  0
VERTEX
  8
Top_plate
 10
-37.197224362268
 20
22.5
 42
0.5773502691896
  0
VERTEX
  8
Top_plate
 10
-39.901387818866
 20
24.0612494995996
 42
0.5773502691896
  0
VERTEX
  8
Top_plate
 10
-39.901387818866
 20
20.9387505004004
 42
0.5773502691896
  0
SEQEND
  0
POLYLINE
  8
Top_plate
 66
     1
 10
0.0
 20
0.0
 30
0.0
 70
     1
  0
VERTEX
  8
Top_plate
 10
-31.0
 20
16.5
 42
0.5773502691896
  0
VERTEX
  8
Top_plate
 10
-32.5
 20
17.3660254037844
 42
0.5773502691896
  0
VERTEX
  8
Top_plate
 10
-32.5
 20
15.6339745962156
 42
0.5773502691896
  0
SEQEND
  0
POLYLINE
  8
Top_plate
 66
     1
 10
0.0
 20
0.0
 30
0.0
 70
     1
  0
VERTEX
  8
Top_plate
 10
-56.0
 20
25.0
 42
0.5773502691896
  0
VERTEX
  8
Top_plate
 10
-59.0
 20
26.7320508075689
 42
0.5773502691896
  0
VERTEX
  8
Top_plate
 10
-59.0
 20
23.2679491924311
 42
0.5773502691896
  0
SEQEND
  0
POLYLINE
  8
Top_plate
 66
     1
 10
0.0
 20
0.0
 30
0.0
 70
     1
  0
VERTEX
  8
Top_plate
 10
-31.0
 20
-16.5
 42
0.5773502691896
  0
VERTEX
  8
Top_plate
 10
-32.5
 20
-15.6339745962156
 42
0.5773502691896
  0
VERTEX
  8
Top_plate
 10
-32.5
 20
-17.3660254037844
 42
0.5773502691896
  0
SEQEND
  0
POLYLINE
  8
Top_plate
 66
     1
 10
0.0
 20
0.0
 30
0.0
 70
     1
  0
VERTEX
  8
Top_plate
 10
-6.0
 20
-25.0
 42
0.5773502691896
  0
VERTEX
  8
Top_plate
 10
-9.0
 20
-23.2679491924311
 42
0.5773502691896
  0
VERTEX
  8
Top_plate
 10
-9.0
 20
-26.7320508075689
 42
0.5773502691896
  0
SEQEND
  0
POLYLINE
  8
Top_plate
 66
     1
 10
0.0
 20
0.0
 30
0.0
 70
     1
  0
VERTEX
  8
Top_plate
 10
7.5
 20
-22.5
 42
0.5773502691896
  0
VERTEX
  8
Top_plate
 10
5.25
 20
-21.2009618943233
 42
0.5773502691896
  0
VERTEX
  8
Top_plate
 10
5.25
 20
-23.7990381056767
 42
0.5773502691896
  0
SEQEND
  0
POLYLINE
  8
Top_plate
 66
     1
 10
0.0
 20
0.0
 30
0.0
 70
     1
  0
VERTEX
  8
Top_plate
 10
30.0
 20
-16.5
 42
0.5773502691896
  0
VERTEX
  8
Top_plate
 10
28.5
 20
-15.6339745962156
 42
0.5773502691896
  0
VERTEX
  8
Top_plate
 10
28.5
 20
-17.3660254037844
 42
0.5773502691896
  0
SEQEND
  0
POLYLINE
  8
Top_plate
 66
     1
 10
0.0
 20
0.0
 30
0.0
 70
     1
  0
VERTEX
  8
Top_plate
 10
13.5
 20
5.0
 42
0.5773502691896
  0
VERTEX
  8
Top_plate
 10
11.25
 20
6.2990381056767
 42
0.5773502691896
  0
VERTEX
  8
Top_plate
 10
11.25
 20
3.7009618943233
 42
0.5773502691896
  0
SEQEND
  0
POLYLINE
  8
Top_plate
 66
     1
 10
0.0
 20
0.0
 30
0.0
 70
     1
  0
VERTEX
  8
Top_plate
 10
13.5
 20
-5.0
 42
0.5773502691896
  0
VERTEX
  8
Top_plate
 10
11.25
 20
-3.7009618943233
 42
0.5773502691896
  0
VERTEX
  8
Top_plate
 10
11.25
 20
-6.2990381056767
 42
0.5773502691896
  0
SEQEND
  0
POLYLINE
  8
Top_plate
 66
     1
 10
0.0
 20
0.0
 30
0.0
 70
     1
  0
VERTEX
  8
Top_plate
 10
-36.5
 20
-5.0
 42
0.5773502691896
  0
VERTEX
  8
Top_plate
 10
-38.75
 20
-3.7009618943233
 42
0.5773502691896
  0
VERTEX
  8
Top_plate
 10
-38.75
 20
-6.2990381056767
 42
0.5773502691896
  0
SEQEND
  0
POLYLINE
  8
Top_plate
 66
     1
 10
0.0
 20
0.0
 30
0.0
 70
     1
  0
VERTEX
  8
Top_plate
 10
-32.5
 20
5.0
 42
0.5773502691896
  0
VERTEX
  8
Top_plate
 10
-34.75
 20
6.2990381056767
 42
0.5773502691896
  0
VERTEX
  8
Top_plate
 10
-34.75
 20
3.7009618943233
 42
0.5773502691896
  0
SEQEND
  0
POLYLINE
  8
Top_plate
 66
     1
 10
0.0
 20
0.0
 30
0.0
 70
     1
  0
VERTEX
  8
Top_plate
 10
-46.5
 20
21.0
 42
0.5773502691896
  0
VERTEX
  8
Top_plate
 10
-48.75
 20
22.2990381056767
 42
0.5773502691896
  0
VERTEX
  8
Top_plate
 10
-48.75
 20
19.7009618943233
 42
0.5773502691896
  0
SEQEND
  0
POLYLINE
  8
Top_plate
 66
     1
 10
0.0
 20
0.0
 30
0.0
 70
     1
  0
VERTEX
  8
Top_plate
 10
-24.5
 20
21.0
 42
0.5773502691896
  0
VERTEX
  8
Top_plate
 10
-26.75
 20
22.2990381056767
 42
0.5773502691896
  0
VERTEX
  8
Top_plate
 10
-26.75
 20
19.7009618943233
 42
0.5773502691896
  0
SEQEND
  0
POLYLINE
  8
Top_plate
 66
     1
 10
0.0
 20
0.0
 30
0.0
 70
     1
  0
VERTEX
  8
Top_plate
 10
-48.5
 20
33.0
 42
0.5773502691896
  0
VERTEX
  8
Top_plate
 10
-50.75
 20
34.2990381056767
 42
0.5773502691896
  0
VERTEX
  8
Top_plate
 10
-50.75
 20
31.7009618943233
 42
0.5773502691896
  0
SEQEND
  0
POLYLINE
  8
Top_plate
 66
     1
 10
0.0
 20
0.0
 30
0.0
 70
     1
  0
VERTEX
  8
Top_plate
 10
-28.5
 20
33.0
 42
0.5773502691896
  0
VERTEX
  8
Top_plate
 10
-30.75
 20
34.2990381056767
 42
0.5773502691896
  0
VERTEX
  8
Top_plate
 10
-30.75
 20
31.7009618943233
 42
0.5773502691896
  0
SEQEND
  0
POLYLINE
  8
Top_plate
 66
     1
 10
0.0
 20
0.0
 30
0.0
 70
     1
  0
VERTEX
  8
Top_plate
 10
-8.5
 20
33.0
 42
0.5773502691896
  0
VERTEX
  8
Top_plate
 10
-10.75
 20
34.2990381056767
 42
0.5773502691896
  0
VERTEX
  8
Top_plate
 10
-10.75
 20
31.7009618943233
 42
0.5773502691896
  0
SEQEND
  0
POLYLINE
  8
Top_plate
 66
     1
 10
0.0
 20
0.0
 30
0.0
 70
     1
  0
VERTEX
  8
Top_plate
 10
11.5
 20
33.0
 42
0.5773502691896
  0
VERTEX
  8
Top_plate
 10
9.25
 20
34.2990381056767
 42
0.5773502691896
  0
VERTEX
  8
Top_plate
 10
9.25
 20
31.7009618943233
 42
0.5773502691896
  0
SEQEND
  0
POLYLINE
  8
Top_plate
 66
     1
 10
0.0
 20
0.0
 30
0.0
 70
     1
  0
VERTEX
  8
Top_plate
 10
31.5
 20
33.0
 42
0.5773502691896
  0
VERTEX
  8
Top_plate
 10
29.25
 20
34.2990381056767
 42
0.5773502691896
  0
VERTEX
  8
Top_plate
 10
29.25
 20
31.7009618943233
 42
0.5773502691896
  0
SEQEND
  0
POLYLINE
  8
Top_plate
 66
     1
 10
0.0
 20
0.0
 30
0.0
 70
     1
  0
VERTEX
  8
Top_plate
 10
51.5
 20
33.0
 42
0.5773502691896
  0
VERTEX
  8
Top_plate
 10
49.25
 20
34.2990381056767
 42
0.5773502691896
  0
VERTEX
  8
Top_plate
 10
49.25
 20
31.7009618943233
 42
0.5773502691896
  0
SEQEND
  0
POLYLINE
  8
Top_plate
 66
     1
 10
0.0
 20
0.0
 30
0.0
 70
     1
  0
VERTEX
  8
Top_plate
 10
11.5
 20
-33.0
 42
0.5773502691896
  0
VERTEX
  8
Top_plate
 10
9.25
 20
-31.7009618943233
 42
0.5773502691896
  0
VERTEX
  8
Top_plate
 10
9.25
 20
-34.2990381056767
 42
0.5773502691896
  0
SEQEND
  0
POLYLINE
  8
Top_plate
 66
     1
 10
0.0
 20
0.0
 30
0.0
 70
     1
  0
VERTEX
  8
Top_plate
 10
31.5
 20
-33.0
 42
0.5773502691896
  0
VERTEX
  8
Top_plate
 10
29.25
 20
-31.7009618943233
 42
0.5773502691896
  0
VERTEX
  8
Top_plate
 10
29.25
 20
-34.2990381056767
 42
0.5773502691896
  0
SEQEND
  0
POLYLINE
  8
Top_plate
 66
     1
 10
0.0
 20
0.0
 30
0.0
 70
     1
  0
VERTEX
  8
Top_plate
 10
-56.0
 20
-25.0
 42
0.5773502691896
  0
VERTEX
  8
Top_plate
 10
-59.0
 20
-23.2679491924311
 42
0.5773502691896
  0
VERTEX
  8
Top_plate
 10
-59.0
 20
-26.7320508075689
 42
0.5773502691896
  0
SEQEND
  0
POLYLINE
  8
Top_plate
 66
     1
 10
0.0
 20
0.0
 30
0.0
 70
     1
  0
VERTEX
  8
Top_plate
 10
-51.5857864376269
 20
-41.0
 42
0.5773502691896
  0
VERTEX
  8
Top_plate
 10
-53.7071067811865
 20
-39.7752551286084
 42
0.5773502691896
  0
VERTEX
  8
Top_plate
 10
-53.7071067811865
 20
-42.2247448713916
 42
0.5773502691896
  0
SEQEND
  0
POLYLINE
  8
Top_plate
 66
     1
 10
0.0
 20
0.0
 30
0.0
 70
     1
  0
VERTEX
  8
Top_plate
 10
-46.5
 20
-21.0
 42
0.5773502691896
  0
VERTEX
  8
Top_plate
 10
-48.75
 20
-19.7009618943233
 42
0.5773502691896
  0
VERTEX
  8
Top_plate
 10
-48.75
 20
-22.2990381056767
 42
0.5773502691896
  0
SEQEND
  0
POLYLINE
  8
Top_plate
 66
     1
 10
0.0
 20
0.0
 30
0.0
 70
     1
  0
VERTEX
  8
Top_plate
 10
-37.197224362268
 20
-22.5
 42
0.5773502691896
  0
VERTEX
  8
Top_plate
 10
-39.901387818866
 20
-20.9387505004004
 42
0.5773502691896
  0
VERTEX
  8
Top_plate
 10
-39.901387818866
 20
-24.0612494995996
 42
0.5773502691896
  0
SEQEND
  0
POLYLINE
  8
Top_plate
 66
     1
 10
0.0
 20
0.0
 30
0.0
 70
     1
  0
VERTEX
  8
Top_plate
 10
-24.5
 20
-21.0
 42
0.5773502691896
  0
VERTEX
  8
Top_plate
 10
-26.75
 20
-19.7009618943233
 42
0.5773502691896
  0
VERTEX
  8
Top_plate
 10
-26.75
 20
-22.2990381056767
 42
0.5773502691896
  0
SEQEND
  0
POLYLINE
  8
Top_plate
 66
     1
 10
0.0
 20
0.0
 30
0.0
 70
     1
  0
VERTEX
  8
Top_plate
 10
-8.5
 20
-33.0
 42
0.5773502691896
  0
VERTEX
  8
Top_plate
 10
-10.75
 20
-31.7009618943233
 42
0.5773502691896
  0
VERTEX
  8
Top_plate
 10
-10.75
 20
-34.2990381056767
 42
0.5773502691896
  0
SEQEND
  0
POLYLINE
  8
Top_plate
 66
     1
 10
0.0
 20
0.0
 30
0.0
 70
     1
  0
VERTEX
  8
Top_plate
 10
-29.5857864376269
 20
-41.0
 42
0.5773502691896
  0
VERTEX
  8
Top_plate
 10
-31.7071067811865
 20
-39.7752551286084
 42
0.5773502691896
  0
VERTEX
  8
Top_plate
 10
-31.7071067811866
 20
-42.2247448713916
 42
0.5773502691896
  0
SEQEND
  0
POLYLINE
  8
Top_plate
 66
     1
 10
0.0
 20
0.0
 30
0.0
 70
     1
  0
VERTEX
  8
Top_plate
 10
51.5
 20
-33.0
 42
0.5773502691896
  0
VERTEX
  8
Top_plate
 10
49.25
 20
-31.7009618943233
 42
0.5773502691896
  0
VERTEX
  8
Top_plate
 10
49.25
 20
-34.2990381056767
 42
0.5773502691896
  0
SEQEND
  0
POLYLINE
  8
Top_plate
 66
     1
 10
0.0
 20
0.0
 30
0.0
 70
     1
  0
VERTEX
  8
Top_plate
 10
28.5
 20
48.0
 42
0.5773502691896
  0
VERTEX
  8
Top_plate
 10
17.25
 20
54.4951905283833
 42
0.5773502691896
  0
VERTEX
  8
Top_plate
 10
17.25
 20
41.5048094716167
 42
0.5773502691896
  0
SEQEND
  0
POLYLINE
  8
Top_plate
 66
     1
 10
0.0
 20
0.0
 30
0.0
 70
     1
  0
VERTEX
  8
Top_plate
 10
-13.5
 20
48.0
 42
0.5773502691896
  0
VERTEX
  8
Top_plate
 10
-24.75
 20
54.4951905283833
 42
0.5773502691896
  0
VERTEX
  8
Top_plate
 10
-24.75
 20
41.5048094716167
 42
0.5773502691896
  0
SEQEND
  0
POLYLINE
  8
Top_plate
 66
     1
 10
0.0
 20
0.0
 30
0.0
 70
     1
  0
VERTEX
  8
Top_plate
 10
7.5
 20
48.0
 42
0.5773502691896
  0
VERTEX
  8
Top_plate
 10
-3.75
 20
54.4951905283833
 42
0.5773502691896
  0
VERTEX
  8
Top_plate
 10
-3.75
 20
41.5048094716167
 42
0.5773502691896
  0
SEQEND
  0
POLYLINE
  8
Top_plate
 66
     1
 10
0.0
 20
0.0
 30
0.0
 70
     1
  0
VERTEX
  8
Top_plate
 10
26.7082039324994
 20
27.0
 42
0.5773502691896
  0
VERTEX
  8
Top_plate
 10
16.6458980337503
 20
32.8094750193111
 42
0.5773502691896
  0
VERTEX
  8
Top_plate
 10
16.6458980337503
 20
21.1905249806889
 42
0.5773502691896
  0
SEQEND
  0
POLYLINE
  8
Top_plate
 66
     1
 10
0.0
 20
0.0
 30
0.0
 70
     1
  0
VERTEX
  8
Top_plate
 10
26.7082039324994
 20
-27.0
 42
0.5773502691896
  0
VERTEX
  8
Top_plate
 10
16.6458980337503
 20
-21.1905249806889
 42
0.5773502691896
  0
VERTEX
  8
Top_plate
 10
16.6458980337503
 20
-32.8094750193111
 42
0.5773502691896
  0
SEQEND
  0
POLYLINE
  8
Top_plate
 66
     1
 10
0.0
 20
0.0
 30
0.0
 70
     1
  0
VERTEX
  8
Top_plate
 10
-50.0
 20
-36.0
 42
0.0
  0
VERTEX
  8
Top_plate
 10
-18.0
 20
-36.0
 42
0.4142135623731
  0
VERTEX
  8
Top_plate
 10
-15.0
 20
-33.0
 42
0.0
  0
VERTEX
  8
Top_plate
 10
-15.0
 20
-31.0
 42
0.4142135623731
  0
VERTEX
  8
Top_plate
 10
-18.0
 20
-28.0
 42
0.0
  0
VERTEX
  8
Top_plate
 10
-50.0
 20
-28.0
 42
0.4142135623731
  0
VERTEX
  8
Top_plate
 10
-53.0
 20
-31.0
 42
0.0
  0
VERTEX
  8
Top_plate
 10
-53.0
 20
-33.0
 42
0.4142135623731
  0
SEQEND
  0
POLYLINE
  8
Top_plate
 66
     1
 10
0.0
 20
0.0
 30
0.0
 70
     1
  0
VERTEX
  8
Top_plate
 10
-13.5
 20
-48.0
 42
0.5773502691896
  0
VERTEX
  8
Top_plate
 10
-24.75
 20
-41.5048094716167
 42
0.5773502691896
  0
VERTEX
  8
Top_plate
 10
-24.75
 20
-54.4951905283833
 42
0.5773502691896
  0
SEQEND
  0
POLYLINE
  8
Top_plate
 66
     1
 10
0.0
 20
0.0
 30
0.0
 70
     1
  0
VERTEX
  8
Top_plate
 10
7.5
 20
-48.0
 42
0.5773502691896
  0
VERTEX
  8
Top_plate
 10
-3.75
 20
-41.5048094716167
 42
0.5773502691896
  0
VERTEX
  8
Top_plate
 10
-3.75
 20
-54.4951905283833
 42
0.5773502691896
  0
SEQEND
  0
POLYLINE
  8
Top_plate
 66
     1
 10
0.0
 20
0.0
 30
0.0
 70
     1
  0
VERTEX
  8
Top_plate
 10
28.5
 20
-48.0
 42
0.5773502691896
  0
VERTEX
  8
Top_plate
 10
17.25
 20
-41.5048094716167
 42
0.5773502691896
  0
VERTEX
  8
Top_plate
 10
17.25
 20
-54.4951905283833
 42
0.5773502691896
  0
SEQEND
  0
CIRCLE
  8
Adapter_plate_holes
 10
-69.0
 20
-32.5
 30
0.0
 40
4.5
  0
CIRCLE
  8
Adapter_plate_holes
 10
109.0
 20
-21.0
 30
0.0
 40
4.5
  0
CIRCLE
  8
Adapter_plate_holes
 10
-69.0
 20
32.5
 30
0.0
 40
4.5
  0
CIRCLE
  8
Adapter_plate_holes
 10
-109.0
 20
21.0
 30
0.0
 40
4.5
  0
CIRCLE
  8
Adapter_plate_holes
 10
-109.0
 20
-21.0
 30
0.0
 40
4.5
  0
CIRCLE
  8
Adapter_plate_holes
 10
69.0
 20
32.5
 30
0.0
 40
4.5
  0
CIRCLE
  8
Adapter_plate_holes
 10
69.0
 20
-32.5
 30
0.0
 40
4.5
  0
CIRCLE
  8
Adapter_plate_holes
 10
109.0
 20
21.0
 30
0.0
 40
4.5
  0
CIRCLE
  8
PixHawk
 10
-39.0
 20
22.5
 30
0.0
 40
1.802775637732
  0
CIRCLE
  8
PixHawk
 10
6.0
 20
22.5
 30
0.0
 40
1.802775637732
  0
CIRCLE
  8
PixHawk
 10
-39.0
 20
-22.5
 30
0.0
 40
1.802775637732
  0
CIRCLE
  8
PixHawk
 10
6.0
 20
-22.5
 30
0.0
 40
1.5
  0
POLYLINE
  8
PixHawk
 66
     1
 10
0.0
 20
0.0
 30
0.0
 70
     1
  0
VERTEX
  8
PixHawk
 10
-66.5
 20
-35.0
 42
0.0
  0
VERTEX
  8
PixHawk
 10
33.5
 20
-35.0
 42
0.0
  0
VERTEX
  8
PixHawk
 10
33.5
 20
35.0
 42
0.0
  0
VERTEX
  8
PixHawk
 10
-66.5
 20
35.0
 42
0.0
  0
SEQEND
  0
POLYLINE
  8
Camera
 66
     1
 10
0.0
 20
0.0
 30
0.0
 70
     1
  0
VERTEX
  8
Camera
 10
-112.0
 20
-15.0
 42
0.0
  0
VERTEX
  8
Camera
 10
-71.0
 20
-15.0
 42
0.0
  0
VERTEX
  8
Camera
 10
-71.0
 20
15.0
 42
0.0
  0
VERTEX
  8
Camera
 10
-112.0
 20
15.0
 42
0.0
  0
SEQEND
  0
CIRCLE
  8
Camera
 10
-95.0
 20
-7.5
 30
0.0
 40
3.5
  0
CIRCLE
  8
Camera
 10
-77.0
 20
0.0
 30
0.0
 40
3.5
  0
CIRCLE
  8
Camera
 10
-95.0
 20
7.5
 30
0.0
 40
3.5
  0
POLYLINE
  8
Transmitter
 66
     1
 10
0.0
 20
0.0
 30
0.0
 70
     1
  0
VERTEX
  8
Transmitter
 10
-38.0
 20
-18.25
 42
0.0
  0
VERTEX
  8
Transmitter
 10
27.0
 20
-18.25
 42
0.0
  0
VERTEX
  8
Transmitter
 10
27.0
 20
18.25
 42
0.0
  0
VERTEX
  8
Transmitter
 10
-38.0
 20
18.25
 42
0.0
  0
SEQEND
  0
CIRCLE
  8
Transmitter
 10
-36.0
 20
-16.5
 30
0.0
 40
1.0
  0
CIRCLE
  8
Transmitter
 10
-36.0
 20
16.5
 30
0.0
 40
1.0
  0
CIRCLE
  8
Transmitter
 10
25.0
 20
16.5
 30
0.0
 40
1.0
  0
CIRCLE
  8
Transmitter
 10
25.0
 20
-16.5
 30
0.0
 40
1.0
  0
POLYLINE
  8
CF_Plate_After
 66
     1
 10
0.0
 20
0.0
 30
0.0
 70
     1
  0
VERTEX
  8
CF_Plate_After
 10
70.0
 20
37.0
 42
0.0
  0
VERTEX
  8
CF_Plate_After
 10
77.0
 20
35.0
 42
0.0
  0
VERTEX
  8
CF_Plate_After
 10
77.0
 20
27.0
 42
0.0
  0
VERTEX
  8
CF_Plate_After
 10
-69.0
 20
27.0
 42
0.0
  0
VERTEX
  8
CF_Plate_After
 10
-103.0
 20
17.4085980067211
 42
0.0
  0
VERTEX
  8
CF_Plate_After
 10
-103.0
 20
-17.4085980067211
 42
0.0
  0
VERTEX
  8
CF_Plate_After
 10
-69.0
 20
-27.0
 42
0.0
  0
VERTEX
  8
CF_Plate_After
 10
77.0
 20
-27.0
 42
0.0
  0
VERTEX
  8
CF_Plate_After
 10
77.0
 20
-35.0
 42
0.0
  0
VERTEX
  8
CF_Plate_After
 10
70.0
 20
-37.0
 42
0.0
  0
VERTEX
  8
CF_Plate_After
 10
-70.0
 20
-37.0
 42
0.0
  0
VERTEX
  8
CF_Plate_After
 10
-113.0
 20
-25.0
 42
0.0
  0
VERTEX
  8
CF_Plate_After
 10
-113.0
 20
25.0
 42
0.0
  0
VERTEX
  8
CF_Plate_After
 10
-70.0
 20
37.0
 42
0.0
  0
SEQEND
  0
POLYLINE
  8
CF_Plate_After
 66
     1
 10
0.0
 20
0.0
 30
0.0
 70
     1
  0
VERTEX
  8
CF_Plate_After
 10
-107.0
 20
21.0
 42
0.5773502691896
  0
VERTEX
  8
CF_Plate_After
 10
-110.0
 20
22.7320508075689
 42
0.5773502691896
  0
VERTEX
  8
CF_Plate_After
 10
-110.0
 20
19.2679491924311
 42
0.5773502691896
  0
SEQEND
  0
POLYLINE
  8
CF_Plate_After
 66
     1
 10
0.0
 20
0.0
 30
0.0
 70
     1
  0
VERTEX
  8
CF_Plate_After
 10
-107.0
 20
-21.0
 42
0.5773502691896
  0
VERTEX
  8
CF_Plate_After
 10
-110.0
 20
-19.2679491924311
 42
0.5773502691896
  0
VERTEX
  8
CF_Plate_After
 10
-110.0
 20
-22.7320508075689
 42
0.5773502691896
  0
SEQEND
  0
POLYLINE
  8
CF_Plate_After
 66
     1
 10
0.0
 20
0.0
 30
0.0
 70
     1
  0
VERTEX
  8
CF_Plate_After
 10
-67.0
 20
-32.5
 42
0.5773502691896
  0
VERTEX
  8
CF_Plate_After
 10
-70.0
 20
-30.7679491924311
 42
0.5773502691896
  0
VERTEX
  8
CF_Plate_After
 10
-70.0
 20
-34.2320508075689
 42
0.5773502691896
  0
SEQEND
  0
POLYLINE
  8
CF_Plate_After
 66
     1
 10
0.0
 20
0.0
 30
0.0
 70
     1
  0
VERTEX
  8
CF_Plate_After
 10
71.0
 20
-32.5
 42
0.5773502691896
  0
VERTEX
  8
CF_Plate_After
 10
68.0
 20
-30.7679491924311
 42
0.5773502691896
  0
VERTEX
  8
CF_Plate_After
 10
68.0
 20
-34.2320508075689
 42
0.5773502691896
  0
SEQEND
  0
POLYLINE
  8
CF_Plate_After
 66
     1
 10
0.0
 20
0.0
 30
0.0
 70
     1
  0
VERTEX
  8
CF_Plate_After
 10
71.0
 20
32.5
 42
0.5773502691896
  0
VERTEX
  8
CF_Plate_After
 10
68.0
 20
34.2320508075689
 42
0.5773502691896
  0
VERTEX
  8
CF_Plate_After
 10
68.0
 20
30.7679491924311
 42
0.5773502691896
  0
SEQEND
  0
POLYLINE
  8
CF_Plate_After
 66
     1
 10
0.0
 20
0.0
 30
0.0
 70
     1
  0
VERTEX
  8
CF_Plate_After
 10
-67.0
 20
32.5
 42
0.5773502691896
  0
VERTEX
  8
CF_Plate_After
 10
-70.0
 20
34.2320508075689
 42
0.5773502691896
  0
VERTEX
  8
CF_Plate_After
 10
-70.0
 20
30.7679491924311
 42
0.5773502691896
  0
SEQEND
  0
POLYLINE
  8
CF_Plate_After
 66
     1
 10
0.0
 20
0.0
 30
0.0
 70
     1
  0
VERTEX
  8
CF_Plate_After
 10
-107.25
 20
0.0
 42
0.5773502691896
  0
VERTEX
  8
CF_Plate_After
 10
-109.875
 20
1.5155444566228
 42
0.5773502691896
  0
VERTEX
  8
CF_Plate_After
 10
-109.875
 20
-1.5155444566228
 42
0.5773502691896
  0
SEQEND
  0
CIRCLE
  8
CF_Plate_After
 10
0.0
 20
0.0
 30
0.0
 40
1.0
  0
POLYLINE
  8
CF_Plate_Before
 66
     1
 10
0.0
 20
0.0
 30
0.0
 70
     1
  0
VERTEX
  8
CF_Plate_Before
 10
70.0
 20
37.0
 42
0.0
  0
VERTEX
  8
CF_Plate_Before
 10
113.0
 20
25.0
 42
0.0
  0
VERTEX
  8
CF_Plate_Before
 10
113.0
 20
-26.0
 42
0.0
  0
VERTEX
  8
CF_Plate_Before
 10
70.0
 20
-37.0
 42
0.0
  0
VERTEX
  8
CF_Plate_Before
 10
-70.0
 20
-37.0
 42
0.0
  0
VERTEX
  8
CF_Plate_Before
 10
-113.0
 20
-25.0
 42
0.0
  0
VERTEX
  8
CF_Plate_Before
 10
-113.0
 20
25.0
 42
0.0
  0
VERTEX
  8
CF_Plate_Before
 10
-70.0
 20
37.0
 42
0.0
  0
SEQEND
  0
POLYLINE
  8
CF_Plate_Before
 66
     1
 10
0.0
 20
0.0
 30
0.0
 70
     1
  0
VERTEX
  8
CF_Plate_Before
 10
-107.0
 20
21.0
 42
0.5773502691896
  0
VERTEX
  8
CF_Plate_Before
 10
-110.0
 20
22.7320508075689
 42
0.5773502691896
  0
VERTEX
  8
CF_Plate_Before
 10
-110.0
 20
19.2679491924311
 42
0.5773502691896
  0
SEQEND
  0
POLYLINE
  8
CF_Plate_Before
 66
     1
 10
0.0
 20
0.0
 30
0.0
 70
     1
  0
VERTEX
  8
CF_Plate_Before
 10
-107.0
 20
-21.0
 42
0.5773502691896
  0
VERTEX
  8
CF_Plate_Before
 10
-110.0
 20
-19.2679491924311
 42
0.5773502691896
  0
VERTEX
  8
CF_Plate_Before
 10
-110.0
 20
-22.7320508075689
 42
0.5773502691896
  0
SEQEND
  0
POLYLINE
  8
CF_Plate_Before
 66
     1
 10
0.0
 20
0.0
 30
0.0
 70
     1
  0
VERTEX
  8
CF_Plate_Before
 10
-67.0
 20
-32.5
 42
0.5773502691896
  0
VERTEX
  8
CF_Plate_Before
 10
-70.0
 20
-30.7679491924311
 42
0.5773502691896
  0
VERTEX
  8
CF_Plate_Before
 10
-70.0
 20
-34.2320508075689
 42
0.5773502691896
  0
SEQEND
  0
POLYLINE
  8
CF_Plate_Before
 66
     1
 10
0.0
 20
0.0
 30
0.0
 70
     1
  0
VERTEX
  8
CF_Plate_Before
 10
71.0
 20
-32.5
 42
0.5773502691896
  0
VERTEX
  8
CF_Plate_Before
 10
68.0
 20
-30.7679491924311
 42
0.5773502691896
  0
VERTEX
  8
CF_Plate_Before
 10
68.0
 20
-34.2320508075689
 42
0.5773502691896
  0
SEQEND
  0
POLYLINE
  8
CF_Plate_Before
 66
     1
 10
0.0
 20
0.0
 30
0.0
 70
     1
  0
VERTEX
  8
CF_Plate_Before
 10
71.0
 20
32.5
 42
0.5773502691896
  0
VERTEX
  8
CF_Plate_Before
 10
68.0
 20
34.2320508075689
 42
0.5773502691896
  0
VERTEX
  8
CF_Plate_Before
 10
68.0
 20
30.7679491924311
 42
0.5773502691896
  0
SEQEND
  0
POLYLINE
  8
CF_Plate_Before
 66
     1
 10
0.0
 20
0.0
 30
0.0
 70
     1
  0
VERTEX
  8
CF_Plate_Before
 10
111.0
 20
21.0
 42
0.5773502691896
  0
VERTEX
  8
CF_Plate_Before
 10
108.0
 20
22.7320508075689
 42
0.5773502691896
  0
VERTEX
  8
CF_Plate_Before
 10
108.0
 20
19.2679491924311
 42
0.5773502691896
  0
SEQEND
  0
POLYLINE
  8
CF_Plate_Before
 66
     1
 10
0.0
 20
0.0
 30
0.0
 70
     1
  0
VERTEX
  8
CF_Plate_Before
 10
111.0
 20
-21.0
 42
0.5773502691896
  0
VERTEX
  8
CF_Plate_Before
 10
108.0
 20
-19.2679491924311
 42
0.5773502691896
  0
VERTEX
  8
CF_Plate_Before
 10
108.0
 20
-22.7320508075689
 42
0.5773502691896
  0
SEQEND
  0
POLYLINE
  8
CF_Plate_Before
 66
     1
 10
0.0
 20
0.0
 30
0.0
 70
     1
  0
VERTEX
  8
CF_Plate_Before
 10
-67.0
 20
32.5
 42
0.5773502691896
  0
VERTEX
  8
CF_Plate_Before
 10
-70.0
 20
34.2320508075689
 42
0.5773502691896
  0
VERTEX
  8
CF_Plate_Before
 10
-70.0
 20
30.7679491924311
 42
0.5773502691896
  0
SEQEND
  0
POLYLINE
  8
CF_Plate_Before
 66
     1
 10
0.0
 20
0.0
 30
0.0
 70
     1
  0
VERTEX
  8
CF_Plate_Before
 10
-74.0
 20
25.501621262535
 42
0.0
  0
VERTEX
  8
CF_Plate_Before
 10
-74.0
 20
-25.501621262535
 42
0.0
  0
VERTEX
  8
CF_Plate_Before
 10
-103.0
 20
-17.4085980067211
 42
0.0
  0
VERTEX
  8
CF_Plate_Before
 10
-103.0
 20
17.4085980067211
 42
0.0
  0
SEQEND
  0
POLYLINE
  8
CF_Plate_Before
 66
     1
 10
0.0
 20
0.0
 30
0.0
 70
     1
  0
VERTEX
  8
CF_Plate_Before
 10
74.0
 20
25.501621262535
 42
0.0
  0
VERTEX
  8
CF_Plate_Before
 10
103.0
 20
17.4085980067211
 42
0.0
  0
VERTEX
  8
CF_Plate_Before
 10
103.0
 20
-18.2361204552688
 42
0.0
  0
VERTEX
  8
CF_Plate_Before
 10
74.0
 20
-25.6547251064316
 42
0.0
  0
SEQEND
  0
POLYLINE
  8
CF_Plate_Before
 66
     1
 10
0.0
 20
0.0
 30
0.0
 70
     1
  0
VERTEX
  8
CF_Plate_Before
 10
64.0
 20
27.0
 42
0.0
  0
VERTEX
  8
CF_Plate_Before
 10
64.0
 20
-27.0
 42
0.0
  0
VERTEX
  8
CF_Plate_Before
 10
-64.0
 20
-27.0
 42
0.0
  0
VERTEX
  8
CF_Plate_Before
 10
-64.0
 20
27.0
 42
0.0
  0
SEQEND
  0
CIRCLE
  8
Props
 10
167.0
 20
-95.0
 30
0.0
 40
89.0
  0
CIRCLE
  8
Props
 10
0.0
 20
-192.0
 30
0.0
 40
89.0
  0
CIRCLE
  8
Props
 10
-167.0
 20
-95.0
 30
0.0
 40
89.0
  0
CIRCLE
  8
Props
 10
167.0
 20
95.0
 30
0.0
 40
89.0
  0
CIRCLE
  8
Props
 10
0.0
 20
192.0
 30
0.0
 40
89.0
  0
CIRCLE
  8
Props
 10
-167.0
 20
95.0
 30
0.0
 40
89.0
  0
POLYLINE
  8
Layer1
 66
     1
 10
0.0
 20
0.0
 30
0.0
 70
     1
  0
VERTEX
  8
Layer1
 10
13.0
 20
15.0
 42
0.0
  0
VERTEX
  8
Layer1
 10
21.0
 20
15.0
 42
0.0
  0
VERTEX
  8
Layer1
 10
21.0
 20
16.5
 42
0.0
  0
VERTEX
  8
Layer1
 10
13.0
 20
16.5
 42
0.0
  0
SEQEND
  0
ENDSEC
  0
EOF
